<svg width="48" height="48" viewBox="0 0 48 48" fill="none" xmlns="http://www.w3.org/2000/svg">
<path d="M40.6797 28.4735C42.818 23.57 43.9864 18.2242 43.9864 12.7206C43.9864 12.4996 43.8285 12.3146 43.6119 12.2785C35.8663 10.9071 29.3839 7.16286 24.345 1.15405C24.1645 0.937489 23.8262 0.937489 23.6457 1.15855C18.6339 7.40652 12.3365 11.0425 4.39687 12.2741C4.1758 12.3102 4.01343 12.4997 4.01343 12.7207C4.01343 26.7954 11.5831 39.9093 23.7947 46.9556H23.7992C23.93 47.0233 24.0879 47.0233 24.2232 46.9466C26.0096 45.9136 27.6787 44.7407 29.2531 43.464C30.7597 44.488 32.5823 45.0835 34.5356 45.0835C39.746 45.0835 43.9865 40.8476 43.9865 35.6373C43.9864 32.7726 42.7008 30.2103 40.6797 28.4735ZM23.9976 46.0308C12.3319 39.1919 5.05096 26.624 4.91558 13.1041C12.625 11.8184 19.0444 8.1373 24.0066 2.14658C29.0501 7.98843 35.4649 11.6695 43.0796 13.095C43.03 18.2602 41.9293 23.2856 39.9489 27.905C39.1054 27.3095 38.158 26.8539 37.143 26.5652C38.5505 23.2315 39.4662 19.6632 39.8091 15.955C39.8271 15.734 39.6873 15.5355 39.4752 15.4769C33.7371 13.9251 28.6531 11.0831 24.363 7.04108C24.187 6.87421 23.9119 6.87421 23.7405 7.04558C19.473 11.1958 14.3573 14.0558 8.53349 15.5401C8.31693 15.5942 8.17265 15.7972 8.19515 16.0183C9.19658 26.6781 14.8671 36.2145 23.7495 42.1828C23.8984 42.2866 24.0968 42.2866 24.2502 42.1828C25.0216 41.6685 25.757 41.1136 26.4787 40.5407C27.0246 41.4384 27.7102 42.2414 28.5133 42.909C27.0922 44.0458 25.5901 45.0969 23.9976 46.0308ZM24.0021 33.1019C24.4939 33.1019 24.9811 33.0703 25.4637 33.0298C25.2246 33.8599 25.0893 34.7305 25.0893 35.6373C25.0893 37.1079 25.4366 38.4973 26.0411 39.7379C25.3779 40.2702 24.7058 40.7844 23.9976 41.2671C15.5933 35.5064 10.1935 26.4481 9.1289 16.3161C14.813 14.8049 19.8338 12.0035 24.0607 7.98861C28.3011 11.8952 33.2814 14.674 38.8707 16.2485C38.5099 19.7806 37.6076 23.1774 36.2452 26.3533C35.6903 26.2495 35.1219 26.1909 34.5355 26.1909C32.7897 26.1909 31.1612 26.6735 29.7537 27.5037C28.7387 25.3429 26.5463 23.8406 24.0021 23.8406C20.4924 23.8406 17.6369 26.6916 17.6369 30.2014C17.637 32.52 21.6879 33.1019 24.0021 33.1019ZM34.5356 44.1812C29.826 44.1812 25.9915 40.3512 25.9915 35.6372C25.9915 30.9276 29.826 27.0931 34.5356 27.0931C39.2497 27.0931 43.0842 30.9276 43.0842 35.6372C43.0842 40.3512 39.2497 44.1812 34.5356 44.1812Z" fill="#17181D"/>
<path d="M27.3178 19.3893C27.3178 21.2163 25.8292 22.7049 24.0022 22.7049C22.1752 22.7049 20.6865 21.2163 20.6865 19.3893C20.6865 17.5623 22.1752 16.0781 24.0022 16.0781C25.8292 16.0781 27.3178 17.5622 27.3178 19.3893Z" fill="#17181D"/>
<path d="M38.8528 34.4399L34.0846 39.0819C33.4666 39.6955 32.4742 39.6909 31.8561 39.0774L30.2185 37.4804C29.5915 36.8669 29.5825 35.8564 30.2051 35.2384C30.8141 34.6339 31.802 34.6204 32.4155 35.2114L32.9704 35.7482L36.656 32.1754C37.2695 31.58 38.2619 31.5889 38.8709 32.1934C39.4934 32.816 39.4844 33.8264 38.8528 34.4399Z" fill="#17181D"/>
</svg>
