<svg width="48" height="48" viewBox="0 0 48 48" fill="none" xmlns="http://www.w3.org/2000/svg">
<path d="M35.6701 6.0601C35.5876 5.6851 35.4526 5.3176 35.2726 4.9651C34.7251 3.9226 33.8026 3.1576 32.6776 2.8126C29.8051 1.9201 26.8051 1.4926 23.8201 1.5001C20.9176 1.5151 18.0451 1.9576 15.2776 2.8126C14.1526 3.1576 13.2301 3.9226 12.6826 4.9651C12.4951 5.3251 12.3601 5.7076 12.2701 6.0976C6.80256 9.4201 3.79506 15.2251 3.79506 22.4926V24.1276C2.43006 25.3351 1.56006 27.0976 1.56006 29.0626V33.9901C1.56006 37.4176 4.35006 40.2076 7.77756 40.2076H8.58756C10.4326 40.2076 11.9326 38.7076 11.9326 36.8626V25.8001C11.9326 24.2476 10.8601 22.9501 9.42006 22.5751V22.4926C9.42006 17.3476 11.3101 13.4176 14.8876 11.0851C15.4126 11.3026 15.9751 11.4301 16.5676 11.4301C17.0026 11.4301 17.4451 11.3626 17.8726 11.2351C19.8076 10.6351 21.8251 10.3276 23.8651 10.3126C25.9276 10.2976 28.0201 10.5976 30.0676 11.2351C30.4951 11.3701 30.9376 11.4301 31.3726 11.4301C31.9576 11.4301 32.5351 11.3026 33.0826 11.0776C36.6751 13.4026 38.5726 17.3401 38.5726 22.4926V22.5751C37.1326 22.9501 36.0601 24.2476 36.0601 25.8001V36.8626C36.0601 37.5226 36.2626 38.1376 36.5926 38.6551C35.0626 40.6501 33.0901 41.8051 30.6301 42.1651C30.3976 40.8451 29.2576 39.8401 27.8701 39.8401H23.2801C21.7351 39.8401 20.4751 41.1001 20.4751 42.6451V43.6801C20.4751 45.2251 21.7351 46.4851 23.2801 46.4851H27.8701C29.4151 46.4851 30.6751 45.2251 30.6751 43.6801V43.6576C33.5851 43.2676 35.8801 41.9626 37.6726 39.6976C38.1751 40.0051 38.7676 40.1926 39.3976 40.1926H40.2076C43.6351 40.1926 46.4251 37.4026 46.4251 33.9751V29.0476C46.4251 27.0826 45.5551 25.3276 44.1901 24.1126V22.4776C44.1901 15.1801 41.1601 9.3676 35.6476 6.0526L35.6701 6.0601ZM10.4326 25.8001V36.8626C10.4326 37.8751 9.60756 38.7076 8.58756 38.7076H7.77756C5.17506 38.7076 3.06006 36.5926 3.06006 33.9901V29.0626C3.06006 27.5476 3.72756 26.1901 4.77756 25.2601C4.94256 25.2076 5.07756 25.0951 5.16756 24.9451C6.00756 24.3301 7.04256 23.9701 8.16006 23.9701H8.55756C8.59506 23.9701 8.63256 23.9926 8.67756 23.9926C8.69256 23.9926 8.70756 23.9851 8.73006 23.9851C9.68256 24.0526 10.4401 24.8401 10.4401 25.8151L10.4326 25.8001ZM7.92756 22.4701C6.99006 22.5001 6.09756 22.7326 5.29506 23.1226V22.4926C5.29506 16.1401 7.75506 11.0026 12.2551 7.8901C12.2851 8.0326 12.3226 8.1826 12.3676 8.3251C12.5926 9.0601 13.0051 9.6976 13.5301 10.2001C9.87006 12.8476 7.93506 17.0626 7.92756 22.4701ZM34.1476 7.8826C33.9151 8.6251 33.4126 9.2326 32.7301 9.5926C32.0401 9.9526 31.2526 10.0276 30.5176 9.7951C28.3201 9.1126 26.0851 8.7901 23.8576 8.8051C21.6751 8.8201 19.5151 9.1501 17.4376 9.7951C17.1526 9.8851 16.8676 9.9226 16.5751 9.9226C15.2926 9.9226 14.1826 9.0976 13.8001 7.8751C13.5676 7.1326 13.6426 6.3451 14.0026 5.6626C14.3626 4.9801 14.9701 4.4701 15.7126 4.2451C18.3376 3.4351 21.0676 3.0151 23.8201 3.0001H23.9851C26.7826 3.0001 29.5501 3.4201 32.2276 4.2451C32.9701 4.4776 33.5776 4.9801 33.9376 5.6626C34.2976 6.3451 34.3726 7.1326 34.1401 7.8751L34.1476 7.8826ZM34.4251 10.1701C34.9501 9.6601 35.3551 9.0451 35.5801 8.3251C35.6251 8.1676 35.6626 8.0176 35.6926 7.8601C40.2226 10.9651 42.7051 16.1101 42.7051 22.4926V23.1226C41.9026 22.7326 41.0176 22.5001 40.0726 22.4701C40.0726 17.0401 38.1151 12.8101 34.4251 10.1701ZM44.9401 29.0551V33.9826C44.9401 36.5851 42.8251 38.7001 40.2226 38.7001H39.4126C38.9626 38.7001 38.5576 38.5351 38.2351 38.2651C38.1826 38.1601 38.1076 38.0626 38.0026 37.9951C37.9876 37.9801 37.9651 37.9801 37.9501 37.9726C37.7176 37.6651 37.5676 37.2826 37.5676 36.8626V25.8001C37.5676 24.8326 38.3251 24.0451 39.2776 23.9701C39.2926 23.9701 39.3076 23.9776 39.3301 23.9776C39.3751 23.9776 39.4051 23.9626 39.4501 23.9551H39.8476C40.9651 23.9551 41.9926 24.3226 42.8401 24.9301C42.9301 25.0801 43.0651 25.1926 43.2301 25.2451C44.2801 26.1826 44.9476 27.5401 44.9476 29.0476L44.9401 29.0551ZM22.6276 32.1751H27.3976C30.9826 32.1751 33.8926 29.2576 33.8926 25.6801C33.8926 22.1026 30.9751 19.1851 27.3976 19.1851H20.8426C17.2576 19.1851 14.3476 22.1026 14.3476 25.6801V26.3851C14.3476 29.0701 15.2851 31.2826 17.5726 34.0126C18.2251 34.9126 19.2601 35.7301 20.6476 36.4351C20.8951 36.5626 21.1576 36.6226 21.4201 36.6226C21.8326 36.6226 22.2376 36.4726 22.5601 36.1726C23.0926 35.6851 23.2576 34.9351 22.9876 34.2676C22.7026 33.5626 22.5151 32.9401 22.4176 32.4076C22.4026 32.3401 22.4326 32.2876 22.4626 32.2576C22.4851 32.2351 22.5376 32.1751 22.6351 32.1751H22.6276ZM19.2826 24.1051C19.2826 23.6926 19.6201 23.3551 20.0326 23.3551H27.6601C28.0726 23.3551 28.4101 23.6926 28.4101 24.1051C28.4101 24.5176 28.0726 24.8551 27.6601 24.8551H20.0326C19.6201 24.8551 19.2826 24.5176 19.2826 24.1051ZM27.6601 28.4326H20.0326C19.6201 28.4326 19.2826 28.0951 19.2826 27.6826C19.2826 27.2701 19.6201 26.9326 20.0326 26.9326H27.6601C28.0726 26.9326 28.4101 27.2701 28.4101 27.6826C28.4101 28.0951 28.0726 28.4326 27.6601 28.4326Z" fill="black"/>
</svg>
