<svg width="48" height="48" viewBox="0 0 48 48" fill="none" xmlns="http://www.w3.org/2000/svg">
<path fill-rule="evenodd" clip-rule="evenodd" d="M16.3993 18.2663L12.4353 22.5901C12.1347 22.917 11.7068 22.9043 11.4555 22.6428L9.44541 20.5229C9.1842 20.2484 9.18929 19.8455 9.44493 19.59C9.70865 19.3263 10.1433 19.3401 10.3784 19.5911L11.8376 21.1558C11.8699 21.1905 11.9242 21.1902 11.9562 21.1554L15.4206 17.3854C15.6637 17.1151 16.0801 17.0932 16.3503 17.3364C16.6206 17.5798 16.6425 17.9961 16.3993 18.2663ZM36.1001 28.7516H29.6822C29.3475 28.7516 29.0761 29.023 29.0761 29.3577C29.0761 29.6925 29.3475 29.9638 29.6822 29.9638H36.1001C36.4349 29.9638 36.7062 29.6925 36.7062 29.3577C36.7063 29.023 36.4349 28.7516 36.1001 28.7516ZM27.2754 27.7465C27.027 27.523 26.6442 27.5431 26.4206 27.7916L24.8145 29.5761C24.7834 29.6107 24.7302 29.612 24.6973 29.5792L24.0473 28.9292C23.8107 28.6925 23.4269 28.6925 23.1901 28.9292C22.9535 29.1658 22.9535 29.5496 23.1901 29.7863L24.3514 30.9477C24.5983 31.1946 24.986 31.1928 25.2521 30.8993L27.3203 28.6013C27.544 28.3528 27.5238 27.9701 27.2754 27.7465ZM25.253 25.3362L27.3204 23.039C27.544 22.7905 27.5238 22.4078 27.2754 22.1842C27.027 21.9606 26.6442 21.9808 26.4206 22.2292L24.8145 24.0138C24.7834 24.0483 24.7302 24.0497 24.6973 24.0168L24.0473 23.3668C23.8107 23.1302 23.4269 23.1302 23.1901 23.3668C22.9535 23.6035 22.9535 23.9873 23.1901 24.224L24.3514 25.3853C24.6006 25.6345 24.9864 25.6288 25.253 25.3362ZM36.1001 23.1893H29.6822C29.3475 23.1893 29.0761 23.4607 29.0761 23.7955C29.0761 24.1302 29.3475 24.4016 29.6822 24.4016H36.1001C36.4349 24.4016 36.7062 24.1302 36.7062 23.7955C36.7063 23.4607 36.4349 23.1893 36.1001 23.1893ZM29.0761 18.2332C29.0761 18.568 29.3475 18.8394 29.6822 18.8394H36.1001C36.4349 18.8394 36.7062 18.568 36.7062 18.2332C36.7062 17.8985 36.4349 17.6271 36.1001 17.6271H29.6822C29.3475 17.6271 29.0761 17.8985 29.0761 18.2332ZM23.1902 18.6619L24.3515 19.8232C24.5985 20.0702 24.9861 20.0684 25.2522 19.7748L27.3204 17.4768C27.544 17.2284 27.5238 16.8456 27.2754 16.6221C27.027 16.3985 26.6442 16.4186 26.4206 16.6671L24.8144 18.4516C24.7833 18.4862 24.7301 18.4875 24.6972 18.4547L24.0472 17.8047C23.8106 17.568 23.4268 17.568 23.19 17.8047C22.9535 18.0413 22.9535 18.4251 23.1902 18.6619ZM5.60801 13.7214L4.08938 26.5455C3.97841 27.4824 4.70186 28.2966 5.64545 28.2966H17.7208C17.7654 28.2966 17.8016 28.3329 17.8016 28.3774V30.4434C17.8016 30.4879 17.7654 30.5242 17.7208 30.5242H11.5314C9.93617 30.5242 8.63306 31.8272 8.63306 33.4225V38.404C8.63306 39.2773 9.34404 39.9883 10.2174 39.9883H31.3351C32.2085 39.9883 32.9194 39.2773 32.9194 38.404V36.4017C32.9194 36.3572 32.9557 36.3209 33.0003 36.3209H36.8976C38.4928 36.3209 39.7959 35.0179 39.7959 33.4225V13.633C39.7959 13.5885 39.8322 13.5522 39.8767 13.5522H43.3156C43.6503 13.5522 43.9217 13.2808 43.9217 12.946C43.9217 10.3422 41.7935 8.21399 39.1898 8.21399H22.5335C20.0681 8.21399 18.0181 10.1258 17.8177 12.5556C17.8142 12.5975 17.7794 12.6298 17.7372 12.6298H16.6382C16.5937 12.6298 16.5574 12.5935 16.5574 12.549V12.0291C16.5574 9.81825 14.7509 8.01172 12.54 8.01172C10.3291 8.01172 8.52257 9.81825 8.52257 12.0291V12.549C8.52257 12.5935 8.48628 12.6298 8.44173 12.6298H6.83652C6.20628 12.6298 5.68212 13.0956 5.60801 13.7214ZM19.0139 33.4224V28.3774C19.0139 28.3329 19.0502 28.2966 19.0948 28.2966H19.4346C20.3781 28.2966 21.1015 27.4824 20.9907 26.5455L19.472 13.7214C19.4337 13.3979 19.2751 13.1172 19.0438 12.9214C19.0245 12.9051 19.0145 12.883 19.0152 12.8577C19.0625 10.9624 20.6297 9.42637 22.5337 9.42637C24.4683 9.42637 26.0533 11.0114 26.0533 12.946C26.0533 13.2808 26.3247 13.5522 26.6595 13.5522H38.5028C38.5473 13.5522 38.5836 13.5885 38.5836 13.633V33.4223C38.5836 34.3484 37.8237 35.1083 36.8977 35.1083H18.6227C18.5586 35.1083 18.5201 35.0377 18.5548 34.9838C18.8451 34.5327 19.0139 33.9964 19.0139 33.4224ZM15.1578 12.6298H9.92205C9.87751 12.6298 9.84122 12.5935 9.84122 12.549V12.0291C9.84122 10.5462 11.057 9.33047 12.5399 9.33047C14.0228 9.33047 15.2385 10.5462 15.2385 12.0291V12.549C15.2386 12.5935 15.2023 12.6298 15.1578 12.6298ZM14.0682 35.4698C14.5932 35.9949 15.318 36.3207 16.1156 36.3207H31.6263C31.6709 36.3207 31.7071 36.357 31.7071 36.4015V38.4038C31.7071 38.6079 31.5393 38.7758 31.3351 38.7758H10.2174C10.0133 38.7758 9.84535 38.608 9.84535 38.4038V33.4223C9.84535 31.9446 11.6502 31.1607 12.7215 32.2321C13.0274 32.538 13.2173 32.9593 13.2173 33.4223C13.2173 34.2201 13.5432 34.9448 14.0682 35.4698Z" fill="#17181D"/>
</svg>
