<svg width="48" height="48" viewBox="0 0 48 48" fill="none" xmlns="http://www.w3.org/2000/svg">
<path d="M24.0681 17.7763C24.0681 17.5237 23.8634 17.3189 23.6108 17.3189C20.2815 17.3189 17.5732 14.6106 17.5732 11.2815C17.5732 11.029 17.3684 10.8242 17.1159 10.8242C16.8633 10.8242 16.6586 11.029 16.6586 11.2815C16.6586 15.115 19.7774 18.2337 23.6109 18.2337C23.8634 18.2337 24.0681 18.0288 24.0681 17.7763Z" fill="#17181D"/>
<path d="M45.7759 33.3386L39.5421 20.8346C39.0299 19.8101 37.7905 19.3985 36.766 19.9106L34.6485 20.9671C33.7201 21.429 33.2536 22.5176 33.6469 23.5511C32.0827 24.3286 30.2258 24.5939 28.6937 24.2326C26.2926 23.6655 24.3168 23.4596 21.9066 24.7723L19.9536 25.8334L14.3877 23.8439L14.6438 23.3774C15.1881 22.3758 14.8176 21.1181 13.816 20.5738L11.7305 19.4441C10.738 18.8999 9.47568 19.2612 8.92687 20.272L2.25871 32.5474C1.71449 33.549 2.0849 34.8067 3.08652 35.351L5.16749 36.4807C6.17821 37.0295 7.42677 36.6545 7.97109 35.6529L8.02593 35.5523L9.3614 36.2886C9.38427 36.7916 9.58096 37.2856 9.96055 37.6698C10.3859 38.0951 10.9805 38.3376 11.6802 38.2553C11.5979 38.9504 11.8357 39.5404 12.2657 39.9703C12.6956 40.4003 13.2856 40.638 13.9807 40.5603C13.9121 41.1686 14.0996 41.8089 14.5707 42.2754C14.9915 42.7007 15.586 42.9431 16.2858 42.8608C16.2126 43.4737 16.4046 44.1094 16.8712 44.5805C17.6853 45.39 19.0071 45.39 19.8212 44.5805L19.8898 44.5119L20.4249 45.0699C21.3442 46.0257 22.8809 45.9709 23.7362 44.9647L23.8414 44.8366C24.1341 44.4936 24.2987 44.0866 24.349 43.6658L24.8659 44.1688C25.8858 45.0836 27.4682 44.8869 28.2366 43.7664C28.5979 43.2404 28.6985 42.6092 28.5704 42.0192C29.2747 41.9598 29.8693 41.5847 30.2305 41.0543C30.8068 40.2173 30.7336 39.115 30.1161 38.3559C30.9211 38.1592 39.2541 34.9898 39.3181 34.9669L39.9538 36.2429C40.4615 37.2582 41.6963 37.6836 42.7299 37.1713L44.8475 36.1103C45.8673 35.6025 46.2835 34.3586 45.7759 33.3386ZM10.61 37.0203C10.1526 36.563 10.1526 35.8221 10.61 35.3647L11.2594 34.7153C11.7167 34.258 12.4531 34.258 12.915 34.7153C13.3723 35.1726 13.3723 35.9181 12.915 36.3754L12.2656 37.0203C11.8082 37.4777 11.0673 37.4777 10.61 37.0203ZM12.9104 39.3254C12.4531 38.8681 12.4531 38.1272 12.9104 37.6698L13.5599 37.0204L14.3831 36.1972C14.8404 35.7399 15.5813 35.7399 16.0387 36.1972C16.4961 36.6545 16.4961 37.4 16.0387 37.8528L14.5706 39.3254C14.1133 39.7827 13.3678 39.7827 12.9104 39.3254ZM15.2155 41.6259C14.7582 41.173 14.7582 40.4276 15.2155 39.9702C15.3161 39.8696 17.2827 37.903 17.4063 37.7795C17.8636 37.3222 18.6091 37.3222 19.0665 37.7795C19.5238 38.2368 19.5238 38.9777 19.0665 39.4351L16.8712 41.6305C16.4137 42.0879 15.6728 42.0879 15.2155 41.6259ZM19.1762 43.931C18.7189 44.3883 17.978 44.3883 17.5206 43.931C17.0632 43.4737 17.0632 42.7328 17.5206 42.2754C17.5754 42.2159 19.9354 39.856 19.94 39.856C20.3928 39.3986 21.1383 39.3986 21.5956 39.856C22.0529 40.3133 22.0529 41.0542 21.5956 41.5116L19.1762 43.931ZM23.146 44.2466L23.0362 44.3746C22.524 44.9829 21.6139 44.9921 21.0833 44.4386L20.5345 43.867C22.3548 42.0238 22.213 42.2296 22.4463 41.9095L23.0134 42.4125C23.5439 42.8836 23.6033 43.7068 23.146 44.2466ZM30.5231 37.1164C30.0475 37.592 29.2974 37.6286 28.7715 37.2124C24.3443 33.6267 24.6553 33.9606 24.23 33.7091C24.0882 33.6039 23.7726 33.5535 23.5896 33.7914C23.5348 33.8645 23.5118 33.9423 23.5118 34.0154C23.5118 34.235 23.6993 34.4362 23.7176 34.4682L29.2058 38.7262C29.7546 39.1607 29.8736 39.9565 29.4757 40.5373C29.1097 41.0725 28.5426 41.3286 27.7881 40.7294L21.943 35.9227C21.7281 35.7444 21.504 35.8175 21.3027 35.9821C21.1746 36.2062 21.1426 36.4349 21.3531 36.6224L26.8596 41.452C27.0471 41.6167 28.2773 42.0878 27.4816 43.2494C27.0151 43.9263 26.0684 44.0178 25.4875 43.4964L22.8257 40.9306C22.8989 40.3178 22.7113 39.6775 22.2403 39.211C21.719 38.685 20.9871 38.5066 20.3195 38.653C20.3286 38.1041 20.1274 37.5507 19.7112 37.13C19.0526 36.4714 18.0602 36.357 17.2735 36.7687C17.2141 36.3114 17.0174 35.8814 16.6836 35.5521C16.025 34.8889 14.9914 34.7335 14.1407 35.2411C14.0812 34.8158 13.8891 34.3996 13.5599 34.0703C12.7458 33.2562 11.424 33.2562 10.61 34.0703L9.96055 34.7197C9.77765 34.9026 9.6404 35.1175 9.5398 35.3417L8.50162 34.77C12.4257 27.4843 13.5737 25.3485 13.8664 24.8134C13.8664 24.8088 13.8756 24.7997 13.8892 24.7722V24.7676C13.8984 24.7585 13.9029 24.7494 13.9075 24.7356C13.9121 24.7219 13.9212 24.7081 13.9304 24.6944V24.6898C13.935 24.6852 13.935 24.6852 13.935 24.6807C13.9396 24.6761 13.9441 24.6671 13.9441 24.6625C13.9487 24.6625 13.9487 24.6579 13.9487 24.6579L18.8744 26.4187L17.8225 26.995C16.8163 27.5438 16.3865 28.7558 16.8209 29.8168C17.2782 30.9191 18.5177 31.4725 19.6428 31.07L23.855 29.5699L27.7242 32.8674L30.4455 35.1862C31.0354 35.6849 31.0673 36.5767 30.5231 37.1164ZM31.7259 36.7916C31.9912 35.8586 31.6436 35.0034 31.0399 34.4911C30.7883 34.2761 25.5836 29.8398 24.2481 28.701C24.1201 28.5958 23.9372 28.5684 23.7953 28.6187L19.3361 30.2103C18.6683 30.4481 17.9366 30.1188 17.6668 29.4648C17.4107 28.8383 17.6622 28.1201 18.2614 27.8L22.3455 25.5727C24.518 24.3927 26.3062 24.6077 28.4832 25.1199C30.2348 25.5361 32.2747 25.2616 34.0355 24.3881C34.8907 26.1444 37.9504 32.4329 38.8011 34.1801L31.7259 36.7916ZM39.3272 26.8122C39.2586 26.8443 39.19 26.8626 39.1214 26.8626C38.9522 26.8626 38.7921 26.7666 38.7143 26.6065L37.1318 23.437L36.8346 23.5833C36.6105 23.6931 36.3361 23.6016 36.2217 23.3775C36.1119 23.1489 36.2034 22.8745 36.4275 22.7647L37.1318 22.4125C37.3559 22.2981 37.6304 22.3896 37.7447 22.6182L39.533 26.1993C39.6427 26.4281 39.5512 26.7025 39.3272 26.8122Z" fill="#17181D"/>
<path d="M32.7275 3.80113C31.7991 2.87272 30.2899 2.87272 29.3614 3.80113L29.0642 4.09381C27.5458 2.93666 25.6614 2.24609 23.6125 2.24609C18.6274 2.24609 14.5752 6.29825 14.5752 11.2788C14.5752 16.264 18.6274 20.3161 23.6125 20.3161C28.5931 20.3161 32.6452 16.264 32.6452 11.2788C32.6452 10.0851 32.4028 8.95091 31.9774 7.90812L32.7275 7.17181C33.6605 6.23881 33.6605 4.73413 32.7275 3.80113ZM23.6125 19.4014C19.135 19.4014 15.4899 15.7609 15.4899 11.2788C15.4899 6.80131 19.135 3.16081 23.6125 3.16081C25.4053 3.16081 27.0609 3.75078 28.4056 4.74322L23.8961 9.17497L23.3152 8.62156C22.3868 7.73431 20.8958 7.748 19.9765 8.66731C19.0343 9.60491 19.0481 11.1325 19.9994 12.0563L22.2176 14.2196C23.146 15.148 24.6553 15.148 25.5837 14.2196L31.264 8.61697C31.5567 9.45397 31.7305 10.3458 31.7305 11.2788C31.7305 15.7609 28.0899 19.4014 23.6125 19.4014Z" fill="#17181D"/>
</svg>
