<svg width="26" height="22" viewBox="0 0 26 22" fill="none" xmlns="http://www.w3.org/2000/svg">
<path d="M21 22H5C1.776 22 0 20.224 0 17V5C0 1.776 1.776 0 5 0H21C24.224 0 26 1.776 26 5V17C26 20.224 24.224 22 21 22ZM5 2C2.89733 2 2 2.89733 2 5V17C2 19.1027 2.89733 20 5 20H21C23.1027 20 24 19.1027 24 17V5C24 2.89733 23.1027 2 21 2H5ZM14.3721 11.9053L20.9212 7.14266C21.3679 6.81866 21.4666 6.19201 21.1413 5.74534C20.8173 5.30001 20.1935 5.19866 19.7441 5.52533L13.1947 10.288C13.0773 10.3733 12.9214 10.3733 12.804 10.288L6.25456 5.52533C5.80389 5.19866 5.18142 5.30134 4.85742 5.74534C4.53209 6.19201 4.63081 6.81733 5.07747 7.14266L11.6266 11.9067C12.0373 12.2053 12.5187 12.3533 12.9987 12.3533C13.4787 12.3533 13.9627 12.204 14.3721 11.9053Z" fill="#DD5454"/>
</svg>
