<svg width="29" height="21" viewBox="0 0 29 21" fill="none" xmlns="http://www.w3.org/2000/svg">
<path d="M26.2571 7.2208C27.8032 8.84756 27.8032 11.3191 26.2571 12.9459C23.6493 15.6896 19.1707 19.4167 14.0833 19.4167C8.99598 19.4167 4.51732 15.6896 1.90961 12.9459C0.363465 11.3191 0.363464 8.84756 1.90961 7.2208C4.51732 4.47711 8.99598 0.75 14.0833 0.75C19.1707 0.75 23.6493 4.47711 26.2571 7.2208Z" stroke="#DD5454" stroke-width="1.5"/>
<path d="M18.0833 10.0833C18.0833 12.2925 16.2925 14.0833 14.0833 14.0833C11.8742 14.0833 10.0833 12.2925 10.0833 10.0833C10.0833 7.87419 11.8742 6.08333 14.0833 6.08333C16.2925 6.08333 18.0833 7.87419 18.0833 10.0833Z" stroke="#DD5454" stroke-width="1.5"/>
</svg>
