<svg width="25" height="24" viewBox="0 0 25 24" fill="none" xmlns="http://www.w3.org/2000/svg">
<path d="M24.6466 12.27C24.6466 11.48 24.575 10.73 24.4524 10H12.9062V14.51H19.5172C19.2209 15.99 18.3524 17.24 17.0649 18.09V21.09H21.009C23.3182 19 24.6466 15.92 24.6466 12.27Z" fill="#4285F4"/>
<path d="M12.9043 23.9991C16.2148 23.9991 18.9839 22.9191 21.007 21.0891L17.0629 18.0891C15.9594 18.8091 14.5596 19.2491 12.9043 19.2491C9.70607 19.2491 6.99834 17.1391 6.02764 14.2891H1.96094V17.3791C3.97385 21.2991 8.11209 23.9991 12.9043 23.9991Z" fill="#34A853"/>
<path d="M6.02934 14.2892C5.77389 13.5692 5.64106 12.7992 5.64106 11.9991C5.64106 11.1991 5.78411 10.4291 6.02934 9.70915V6.61914H1.96263C1.12477 8.23914 0.644531 10.0591 0.644531 11.9991C0.644531 13.9392 1.12477 15.7592 1.96263 17.3792L6.02934 14.2892Z" fill="#FBBC05"/>
<path d="M12.9043 4.75001C14.7128 4.75001 16.3272 5.36001 17.6045 6.55002L21.099 3.13001C18.9839 1.19 16.2148 0 12.9043 0C8.11209 0 3.97385 2.70001 1.96094 6.62002L6.02764 9.71002C6.99834 6.86002 9.70607 4.75001 12.9043 4.75001Z" fill="#EA4335"/>
</svg>
