<svg width="26" height="25" viewBox="0 0 26 25" fill="none" xmlns="http://www.w3.org/2000/svg">
<path d="M12.9987 24.6654C12.8573 24.6654 12.7159 24.6361 12.5839 24.5761C12.1479 24.3774 1.88667 19.6188 0.241332 11.1441C-0.394668 7.86544 0.244007 4.66676 1.94934 2.58942C3.32934 0.906758 5.31328 0.0120693 7.68795 6.9272e-05C7.69995 6.9272e-05 7.71195 6.9272e-05 7.72262 6.9272e-05C10.4319 6.9272e-05 12.084 1.54277 12.9974 2.85611C13.9147 1.53744 15.5799 -0.0119307 18.3066 6.9272e-05C20.6826 0.0120693 22.6679 0.906758 24.0493 2.58942C25.7519 4.66542 26.3892 7.86408 25.7519 11.1454C24.1092 19.6201 13.8466 24.3801 13.4106 24.5775C13.2813 24.6361 13.14 24.6654 12.9987 24.6654ZM7.72131 1.99877C7.71331 1.99877 7.70669 1.99877 7.69869 1.99877C5.91469 2.00677 4.50139 2.63208 3.49605 3.85741C2.16405 5.48008 1.6827 8.06143 2.20536 10.7628C3.4787 17.3281 11.1227 21.5947 12.9987 22.5521C14.8747 21.5947 22.5187 17.3281 23.7907 10.7628C24.316 8.0601 23.8347 5.47874 22.5053 3.85741C21.5 2.63341 20.0866 2.0094 18.2986 2.00007C18.2906 2.00007 18.2827 2.00007 18.276 2.00007C15.1133 2.00007 13.9921 5.16944 13.9467 5.30411C13.8081 5.70811 13.4266 5.98273 13 5.98273C12.9973 5.98273 12.9959 5.98273 12.9946 5.98273C12.5666 5.9814 12.1853 5.70809 12.0493 5.30142C12.0053 5.16809 10.8826 1.99877 7.72131 1.99877Z" fill="#DD5454"/>
</svg>
