<svg width="24" height="24" viewBox="0 0 24 24" fill="none" xmlns="http://www.w3.org/2000/svg">
<path d="M12 21.7491C11.894 21.7491 11.7879 21.7271 11.6889 21.6821C11.3619 21.5331 3.66598 17.9641 2.43198 11.6081C1.95498 9.14908 2.43398 6.75007 3.71298 5.19207C4.74798 3.93007 6.23594 3.25905 8.01694 3.25005C8.02594 3.25005 8.03494 3.25005 8.04294 3.25005C10.0749 3.25005 11.314 4.40708 11.999 5.39208C12.687 4.40308 13.9359 3.24105 15.9809 3.25005C17.7629 3.25905 19.2519 3.93007 20.2879 5.19207C21.5649 6.74907 22.0429 9.14806 21.5649 11.6091C20.3329 17.9651 12.6359 21.5351 12.3089 21.6831C12.2119 21.7271 12.106 21.7491 12 21.7491ZM8.04196 4.74908C8.03596 4.74908 8.03099 4.74908 8.02499 4.74908C6.68699 4.75508 5.62702 5.22406 4.87302 6.14306C3.87402 7.36006 3.513 9.29607 3.905 11.3221C4.86 16.2461 10.593 19.4461 12 20.1641C13.407 19.4461 19.14 16.2461 20.094 11.3221C20.488 9.29507 20.127 7.35906 19.13 6.14306C18.376 5.22506 17.3159 4.75705 15.9749 4.75005C15.9689 4.75005 15.963 4.75005 15.958 4.75005C13.586 4.75005 12.745 7.12708 12.711 7.22808C12.607 7.53108 12.3209 7.73705 12.0009 7.73705C11.9989 7.73705 11.9979 7.73705 11.9969 7.73705C11.6759 7.73605 11.3899 7.53106 11.2879 7.22607C11.2549 7.12607 10.413 4.74908 8.04196 4.74908Z" fill="#17181D"/>
</svg>
