<svg width="24" height="26" viewBox="0 0 24 26" fill="none" xmlns="http://www.w3.org/2000/svg">
<path d="M11.6667 0C5.23333 0 0 5.23333 0 11.6667C0 18.4907 6.26266 22.6266 10.4067 25.3639L11.112 25.832C11.28 25.944 11.4733 26 11.6667 26C11.86 26 12.0533 25.944 12.2213 25.832L12.9267 25.3639C17.0707 22.6266 23.3333 18.4907 23.3333 11.6667C23.3333 5.23333 18.1 0 11.6667 0ZM11.8253 23.6947L11.6667 23.8001L11.508 23.6947C7.49466 21.044 2 17.4147 2 11.6667C2 6.336 6.336 2 11.6667 2C16.9973 2 21.3333 6.336 21.3333 11.6667C21.3333 17.4147 15.8373 21.0453 11.8253 23.6947ZM11.6667 7.33333C9.27733 7.33333 7.33333 9.27733 7.33333 11.6667C7.33333 14.056 9.27733 16 11.6667 16C14.056 16 16 14.056 16 11.6667C16 9.27733 14.056 7.33333 11.6667 7.33333ZM11.6667 14C10.38 14 9.33333 12.9533 9.33333 11.6667C9.33333 10.38 10.38 9.33333 11.6667 9.33333C12.9533 9.33333 14 10.38 14 11.6667C14 12.9533 12.9533 14 11.6667 14Z" fill="white" fill-opacity="0.8"/>
</svg>
