<svg width="24" height="26" viewBox="0 0 24 26" fill="none" xmlns="http://www.w3.org/2000/svg">
<path d="M12.0007 0C5.56732 0 0.333984 5.23333 0.333984 11.6667C0.333984 18.4907 6.59664 22.6266 10.7406 25.3639L11.446 25.832C11.614 25.944 11.8073 26 12.0007 26C12.194 26 12.3873 25.944 12.5553 25.832L13.2607 25.3639C17.4047 22.6266 23.6673 18.4907 23.6673 11.6667C23.6673 5.23333 18.434 0 12.0007 0ZM12.1593 23.6947L12.0007 23.8001L11.842 23.6947C7.82865 21.044 2.33398 17.4147 2.33398 11.6667C2.33398 6.336 6.66998 2 12.0007 2C17.3313 2 21.6673 6.336 21.6673 11.6667C21.6673 17.4147 16.1713 21.0453 12.1593 23.6947ZM12.0007 7.33333C9.61132 7.33333 7.66732 9.27733 7.66732 11.6667C7.66732 14.056 9.61132 16 12.0007 16C14.39 16 16.334 14.056 16.334 11.6667C16.334 9.27733 14.39 7.33333 12.0007 7.33333ZM12.0007 14C10.714 14 9.66732 12.9533 9.66732 11.6667C9.66732 10.38 10.714 9.33333 12.0007 9.33333C13.2873 9.33333 14.334 10.38 14.334 11.6667C14.334 12.9533 13.2873 14 12.0007 14Z" fill="#DD5454"/>
</svg>
