<svg width="26" height="26" viewBox="0 0 26 26" fill="none" xmlns="http://www.w3.org/2000/svg">
<path d="M26 5V21C26 24.224 24.224 26 21 26H13C9.776 26 8 24.224 8 21V19.6667C8 19.1147 8.448 18.6667 9 18.6667C9.552 18.6667 10 19.1147 10 19.6667V21C10 23.1027 10.8973 24 13 24H21C23.1027 24 24 23.1027 24 21V5C24 2.89733 23.1027 2 21 2H13C10.8973 2 10 2.89733 10 5V6.33333C10 6.88533 9.552 7.33333 9 7.33333C8.448 7.33333 8 6.88533 8 6.33333V5C8 1.776 9.776 0 13 0H21C24.224 0 26 1.776 26 5ZM13.6266 16.2933C13.236 16.684 13.236 17.3173 13.6266 17.708C13.8213 17.9027 14.0773 18.0013 14.3333 18.0013C14.5893 18.0013 14.8454 17.904 15.04 17.708L19.04 13.708C19.132 13.616 19.2054 13.5053 19.256 13.3827C19.3574 13.1387 19.3574 12.8627 19.256 12.6187C19.2054 12.496 19.132 12.3853 19.04 12.2933L15.04 8.29334C14.6494 7.90267 14.016 7.90267 13.6253 8.29334C13.2347 8.684 13.2347 9.31734 13.6253 9.70801L15.9187 12.0013H1C0.448 12.0013 0 12.4493 0 13.0013C0 13.5533 0.448 14.0013 1 14.0013H15.9187L13.6266 16.2933Z" fill="#DD5454"/>
</svg>
