<svg width="45" height="11" viewBox="0 0 45 11" fill="none" xmlns="http://www.w3.org/2000/svg">
<path d="M7.58425 0.521623C7.02265 0.174155 6.28981 0 5.38573 0H1.88563C1.60848 0 1.45536 0.124749 1.42627 0.374006L0.00446304 8.40658C-0.0103141 8.48547 0.0116175 8.55762 0.0700573 8.62321C0.128163 8.68893 0.201246 8.72161 0.288772 8.72161H1.9513C2.24289 8.72161 2.40317 8.59716 2.43259 8.3476L2.82629 6.18203C2.84066 6.07708 2.89195 5.99175 2.97947 5.92604C3.06693 5.86044 3.17632 5.81753 3.30758 5.79792C3.43883 5.77842 3.5626 5.76855 3.67948 5.76855C3.79603 5.76855 3.9345 5.77523 4.09518 5.78829C4.25545 5.80135 4.35762 5.80778 4.40142 5.80778C5.65553 5.80778 6.63992 5.48974 7.35463 4.85294C8.06902 4.2165 8.42661 3.33392 8.42661 2.20486C8.42661 1.43049 8.14558 0.869452 7.58425 0.521443V0.521623ZM5.77963 2.93356C5.70648 3.39302 5.51712 3.69475 5.21088 3.83918C4.90458 3.98379 4.46708 4.05576 3.8984 4.05576L3.17646 4.07538L3.54843 1.96873C3.57745 1.82448 3.67219 1.75226 3.83274 1.75226H4.2485C4.83156 1.75226 5.25475 1.82791 5.51726 1.97859C5.77963 2.12964 5.86716 2.44804 5.77963 2.93356Z" fill="#003087"/>
<path d="M44.5227 0H42.9041C42.7432 0 42.6485 0.0722145 42.6197 0.216702L41.1977 8.40694L41.1758 8.44629C41.1758 8.51225 41.2049 8.57429 41.2634 8.63339C41.3214 8.69236 41.3947 8.72191 41.4821 8.72191H42.9261C43.2027 8.72191 43.3559 8.59746 43.3855 8.3479L44.8073 0.295474V0.275917C44.8073 0.0920728 44.7122 0.000241498 44.5227 0.000241498V0Z" fill="#009CDE"/>
<path d="M24.9681 3.16819C24.9681 3.10272 24.9388 3.04026 24.8808 2.98134C24.8223 2.92231 24.7566 2.89258 24.6839 2.89258H22.9995C22.8387 2.89258 22.7075 2.95853 22.6056 3.08942L20.2868 6.16085L19.3243 3.20767C19.251 2.99783 19.0908 2.89258 18.8431 2.89258H17.2021C17.1291 2.89258 17.0635 2.92219 17.0055 2.98134C16.947 3.04026 16.918 3.10284 16.918 3.16819C16.918 3.19461 17.0602 3.58168 17.3445 4.32981C17.6288 5.07818 17.9351 5.88541 18.2632 6.75174C18.5914 7.61788 18.7626 8.07752 18.7773 8.12957C17.5813 9.59984 16.9836 10.3873 16.9836 10.4922C16.9836 10.663 17.0782 10.7482 17.268 10.7482H18.9524C19.1127 10.7482 19.2439 10.6827 19.3462 10.5514L24.9246 3.30594C24.9535 3.27994 24.9681 3.23421 24.9681 3.16813V3.16819Z" fill="#003087"/>
<path d="M40.6509 2.89367H38.9883C38.7839 2.89367 38.6604 3.11031 38.6166 3.54353C38.2369 3.01866 37.5447 2.75586 36.5382 2.75586C35.4882 2.75586 34.5949 3.11031 33.8586 3.81909C33.122 4.52787 32.7539 5.36158 32.7539 6.31962C32.7539 7.09418 33.0055 7.71101 33.5085 8.17023C34.0116 8.62993 34.686 8.85933 35.5322 8.85933C35.955 8.85933 36.3852 8.78043 36.8227 8.62307C37.2602 8.46558 37.6026 8.25568 37.851 7.99306C37.851 8.00624 37.8361 8.0651 37.8073 8.17005C37.7778 8.27524 37.7634 8.35425 37.7634 8.40631C37.7634 8.61657 37.858 8.72128 38.0479 8.72128H39.5574C39.8341 8.72128 39.9947 8.59683 40.0383 8.34727L40.9354 3.20864C40.9497 3.12981 40.928 3.05777 40.8697 2.99206C40.8111 2.92658 40.7383 2.89367 40.6509 2.89367ZM37.7962 6.7724C37.4243 7.10056 36.9758 7.26454 36.4508 7.26454C36.0277 7.26454 35.6853 7.15971 35.4226 6.94957C35.16 6.74003 35.0288 6.45123 35.0288 6.0833C35.0288 5.59802 35.2111 5.18749 35.5758 4.85283C35.9399 4.51812 36.3924 4.35083 36.932 4.35083C37.34 4.35083 37.6792 4.45909 37.9492 4.67555C38.2188 4.89219 38.3541 5.1908 38.3541 5.57154C38.354 6.044 38.168 6.44443 37.7962 6.7724Z" fill="#009CDE"/>
<path d="M15.7995 2.89367H14.137C13.9325 2.89367 13.8088 3.11031 13.765 3.54353C13.3712 3.01866 12.6785 2.75586 11.6868 2.75586C10.6368 2.75586 9.74338 3.11031 9.00701 3.81909C8.27043 4.52787 7.90234 5.36158 7.90234 6.31962C7.90234 7.09418 8.15395 7.71101 8.65711 8.17023C9.16026 8.62993 9.83459 8.85933 10.6806 8.85933C11.0887 8.85933 11.5119 8.78043 11.9493 8.62307C12.3868 8.46558 12.7368 8.25568 12.9993 7.99306C12.9408 8.15043 12.9118 8.2883 12.9118 8.40631C12.9118 8.61657 13.0066 8.72128 13.1962 8.72128H14.7056C14.9825 8.72128 15.1431 8.59683 15.1869 8.34727L16.0837 3.20864C16.0981 3.12981 16.0763 3.05777 16.0181 2.99206C15.9598 2.92658 15.8869 2.89367 15.7995 2.89367ZM12.9448 6.78215C12.5728 7.10411 12.1169 7.26454 11.5776 7.26454C11.1544 7.26454 10.8154 7.15971 10.5603 6.94957C10.305 6.74003 10.1775 6.45123 10.1775 6.0833C10.1775 5.59802 10.3597 5.18749 10.7244 4.85283C11.0888 4.51812 11.5409 4.35077 12.0807 4.35077C12.4888 4.35077 12.8279 4.45909 13.098 4.67555C13.3676 4.89219 13.5026 5.1908 13.5026 5.57154C13.5026 6.05718 13.3167 6.46092 12.9448 6.78215Z" fill="#003087"/>
<path d="M32.4359 0.521623C31.8744 0.174155 31.1418 0 30.2375 0H26.7592C26.4675 0 26.3069 0.124749 26.278 0.374006L24.856 8.40658C24.8412 8.48547 24.8632 8.55762 24.9217 8.62321C24.9795 8.68893 25.0528 8.72161 25.1403 8.72161H26.934C27.109 8.72161 27.2256 8.63639 27.2841 8.46573L27.6779 6.18203C27.6924 6.07708 27.7434 5.99175 27.8311 5.92604C27.9186 5.86044 28.0279 5.81753 28.1593 5.79792C28.2904 5.77842 28.4142 5.76855 28.5311 5.76855C28.6477 5.76855 28.7861 5.77523 28.9467 5.78829C29.107 5.80135 29.2094 5.80778 29.2529 5.80778C30.5073 5.80778 31.4915 5.48974 32.2062 4.85294C32.9208 4.2165 33.2781 3.33392 33.2781 2.20486C33.2781 1.43049 32.9972 0.869392 32.4359 0.521443V0.521623ZM30.1937 3.76035C29.8729 3.95719 29.3915 4.05558 28.75 4.05558L28.0499 4.07532L28.4218 1.9686C28.4507 1.82442 28.5455 1.75208 28.7061 1.75208H29.0997C29.4206 1.75208 29.6758 1.76526 29.8656 1.79144C30.0549 1.8178 30.2375 1.8997 30.4125 2.03745C30.5876 2.17532 30.675 2.37559 30.675 2.63797C30.675 3.18944 30.5144 3.56332 30.1937 3.76035Z" fill="#009CDE"/>
</svg>
