<svg width="26" height="26" viewBox="0 0 26 26" fill="none" xmlns="http://www.w3.org/2000/svg">
<path d="M19.0717 25.9993C18.4597 25.9993 17.8438 25.9166 17.2358 25.75C9.01576 23.494 2.50774 16.99 0.250405 8.77531C-0.262928 6.90731 0.0183347 4.96063 1.045 3.29663C2.07567 1.62463 3.77042 0.444632 5.69442 0.0606317C6.97442 -0.195368 8.23974 0.375308 8.88908 1.46997L10.9731 4.98995C11.9851 6.69929 11.4822 8.90062 9.82755 10.002L8.31974 11.0046C9.72907 13.898 12.0995 16.2753 14.9809 17.6833L15.9971 16.1673C17.1051 14.5153 19.3064 14.0206 21.0144 15.038L24.5385 17.1393C25.6292 17.79 26.1931 19.0633 25.9451 20.306C25.5611 22.23 24.381 23.9246 22.7104 24.9553C21.5877 25.6459 20.3384 25.9993 19.0717 25.9993ZM6.30639 1.99663C6.24106 1.99663 6.17443 2.00331 6.11043 2.01665C4.7051 2.29798 3.48777 3.14462 2.7491 4.34595C2.0171 5.53262 1.81574 6.91796 2.18107 8.24463C4.25174 15.782 10.2237 21.7513 17.7651 23.8206C19.0931 24.1846 20.4743 23.982 21.6596 23.2513C22.8596 22.5113 23.7078 21.2926 23.9838 19.9113C24.0665 19.4966 23.8784 19.0713 23.5131 18.854L19.9903 16.7526C19.197 16.2806 18.1729 16.5113 17.6583 17.278L16.1716 19.498C15.905 19.8953 15.3905 20.0473 14.9558 19.8633C11.0051 18.2113 7.79046 14.99 6.13712 11.0246C5.95312 10.582 6.1076 10.0726 6.50626 9.80729L8.72111 8.33395C9.48911 7.82328 9.72237 6.80062 9.25171 6.00729L7.16772 2.48861C6.98506 2.17928 6.65439 1.99663 6.30639 1.99663Z" fill="#DD5454"/>
</svg>
