<svg width="120" height="24" viewBox="0 0 120 24" fill="none" xmlns="http://www.w3.org/2000/svg">
<path d="M12.9626 4.59625L14.9046 8.51324C15.0506 8.80824 15.3326 9.01226 15.6596 9.05926L20.1425 9.70721C20.9645 9.82621 21.2926 10.8342 20.6976 11.4122L17.4566 14.5572C17.2196 14.7872 17.1116 15.1182 17.1676 15.4432L17.9085 19.7473C18.0585 20.6203 17.1415 21.2862 16.3555 20.8752L12.4676 18.8403C12.1756 18.6873 11.8276 18.6873 11.5366 18.8403L7.65157 20.8732C6.86457 21.2852 5.94454 20.6182 6.09554 19.7432L6.83663 15.4432C6.89263 15.1182 6.78457 14.7872 6.54757 14.5572L3.3066 11.4122C2.7106 10.8342 3.03853 9.82621 3.86153 9.70721L8.34456 9.05926C8.67056 9.01226 8.95257 8.80824 9.09957 8.51324L11.0416 4.59625C11.4326 3.80125 12.5686 3.80125 12.9626 4.59625Z" fill="#FFC107"/>
<path d="M36.9626 4.59625L38.9046 8.51324C39.0506 8.80824 39.3326 9.01226 39.6596 9.05926L44.1425 9.70721C44.9645 9.82621 45.2926 10.8342 44.6976 11.4122L41.4566 14.5572C41.2196 14.7872 41.1116 15.1182 41.1676 15.4432L41.9085 19.7473C42.0585 20.6203 41.1415 21.2862 40.3555 20.8752L36.4676 18.8403C36.1756 18.6873 35.8276 18.6873 35.5366 18.8403L31.6516 20.8732C30.8646 21.2852 29.9445 20.6182 30.0955 19.7432L30.8366 15.4432C30.8926 15.1182 30.7846 14.7872 30.5476 14.5572L27.3066 11.4122C26.7106 10.8342 27.0385 9.82621 27.8615 9.70721L32.3446 9.05926C32.6706 9.01226 32.9526 8.80824 33.0996 8.51324L35.0416 4.59625C35.4326 3.80125 36.5686 3.80125 36.9626 4.59625Z" fill="#FFC107"/>
<path d="M60.9626 4.59625L62.9046 8.51324C63.0506 8.80824 63.3326 9.01226 63.6596 9.05926L68.1425 9.70721C68.9645 9.82621 69.2926 10.8342 68.6976 11.4122L65.4566 14.5572C65.2196 14.7872 65.1116 15.1182 65.1676 15.4432L65.9085 19.7473C66.0585 20.6203 65.1415 21.2862 64.3555 20.8752L60.4676 18.8403C60.1756 18.6873 59.8276 18.6873 59.5366 18.8403L55.6516 20.8732C54.8646 21.2852 53.9445 20.6182 54.0955 19.7432L54.8366 15.4432C54.8926 15.1182 54.7846 14.7872 54.5476 14.5572L51.3066 11.4122C50.7106 10.8342 51.0385 9.82621 51.8615 9.70721L56.3446 9.05926C56.6706 9.01226 56.9526 8.80824 57.0996 8.51324L59.0416 4.59625C59.4326 3.80125 60.5686 3.80125 60.9626 4.59625Z" fill="#FFC107"/>
<path d="M84.9626 4.59625L86.9046 8.51324C87.0506 8.80824 87.3326 9.01226 87.6596 9.05926L92.1425 9.70721C92.9645 9.82621 93.2926 10.8342 92.6976 11.4122L89.4566 14.5572C89.2196 14.7872 89.1116 15.1182 89.1676 15.4432L89.9085 19.7473C90.0585 20.6203 89.1415 21.2862 88.3555 20.8752L84.4676 18.8403C84.1756 18.6873 83.8276 18.6873 83.5366 18.8403L79.6516 20.8732C78.8646 21.2852 77.9445 20.6182 78.0955 19.7432L78.8366 15.4432C78.8926 15.1182 78.7846 14.7872 78.5476 14.5572L75.3066 11.4122C74.7106 10.8342 75.0385 9.82621 75.8615 9.70721L80.3446 9.05926C80.6706 9.01226 80.9526 8.80824 81.0996 8.51324L83.0416 4.59625C83.4326 3.80125 84.5686 3.80125 84.9626 4.59625Z" fill="#FFC107"/>
<path d="M108.963 4.59625L110.905 8.51324C111.051 8.80824 111.333 9.01226 111.66 9.05926L116.143 9.70721C116.965 9.82621 117.293 10.8342 116.698 11.4122L113.457 14.5572C113.22 14.7872 113.112 15.1182 113.168 15.4432L113.909 19.7473C114.059 20.6203 113.142 21.2862 112.356 20.8752L108.468 18.8403C108.176 18.6873 107.828 18.6873 107.537 18.8403L103.652 20.8732C102.865 21.2852 101.945 20.6182 102.096 19.7432L102.837 15.4432C102.893 15.1182 102.785 14.7872 102.548 14.5572L99.3066 11.4122C98.7106 10.8342 99.0385 9.82621 99.8615 9.70721L104.345 9.05926C104.671 9.01226 104.953 8.80824 105.1 8.51324L107.042 4.59625C107.433 3.80125 108.569 3.80125 108.963 4.59625Z" fill="#FFC107"/>
</svg>
