<svg width="26" height="26" viewBox="0 0 26 26" fill="none" xmlns="http://www.w3.org/2000/svg">
<path d="M21.0013 16C19.1906 16 17.6159 16.9773 16.7386 18.424L9.63053 14.8707C9.8652 14.292 10.0013 13.6627 10.0013 13C10.0013 12.3373 9.8652 11.708 9.63053 11.1293L16.7386 7.57601C17.6159 9.02134 19.1906 10 21.0013 10C23.7573 10 26.0013 7.75733 26.0013 5C26.0013 2.24267 23.7573 0 21.0013 0C18.2453 0 16.0013 2.24267 16.0013 5C16.0013 5.23067 16.0387 5.45202 16.0693 5.67468L8.51595 9.45068C7.61195 8.55468 6.37067 8 5 8C2.244 8 0 10.2427 0 13C0 15.7573 2.244 18 5 18C6.36933 18 7.61195 17.444 8.51595 16.5493L16.0693 20.3253C16.0387 20.548 16.0013 20.7693 16.0013 21C16.0013 23.7573 18.2453 26 21.0013 26C23.7573 26 26.0013 23.7573 26.0013 21C26.0013 18.2427 23.7573 16 21.0013 16ZM21.0013 2C22.6546 2 24.0013 3.34533 24.0013 5C24.0013 6.65467 22.6546 8 21.0013 8C19.348 8 18.0013 6.65467 18.0013 5C18.0013 3.34533 19.348 2 21.0013 2ZM5.0013 16C3.34797 16 2.0013 14.6547 2.0013 13C2.0013 11.3453 3.34797 10 5.0013 10C6.65464 10 8.0013 11.3453 8.0013 13C8.0013 14.6547 6.65464 16 5.0013 16ZM21.0013 24C19.348 24 18.0013 22.6547 18.0013 21C18.0013 19.3453 19.348 18 21.0013 18C22.6546 18 24.0013 19.3453 24.0013 21C24.0013 22.6547 22.6546 24 21.0013 24Z" fill="#25314C"/>
</svg>
