<svg width="32" height="32" viewBox="0 0 32 32" fill="none" xmlns="http://www.w3.org/2000/svg">
<g clip-path="url(#clip0_306_15338)">
<path d="M17.1956 4.07723C16.971 3.62212 16.5075 3.33398 15.9999 3.33398C15.4924 3.33398 15.0289 3.62212 14.8043 4.07723L11.4321 10.91L3.89164 12.0057C3.38939 12.0787 2.97213 12.4305 2.8153 12.9132C2.65846 13.3959 2.78926 13.9257 3.15269 14.28L8.60902 19.5986L7.32095 27.1086C7.23516 27.6088 7.44079 28.1144 7.85138 28.4127C8.26198 28.711 8.80633 28.7503 9.25555 28.5142L15.9999 24.9684L22.7443 28.5142C23.1936 28.7503 23.7379 28.711 24.1485 28.4127C24.5591 28.1144 24.7647 27.6088 24.6789 27.1086L23.3909 19.5986L28.8472 14.28C29.2106 13.9257 29.3414 13.3959 29.1846 12.9132C29.0278 12.4305 28.6105 12.0787 28.1082 12.0057L20.5678 10.91L17.1956 4.07723Z" fill="#FFC107"/>
</g>
<defs>
<clipPath id="clip0_306_15338">
<rect width="26.6667" height="26.6667" fill="white" transform="translate(2.66406 2.66699)"/>
</clipPath>
</defs>
</svg>
