<svg width="18" height="17" viewBox="0 0 18 17" fill="none" xmlns="http://www.w3.org/2000/svg">
<path d="M9.96065 0.59625L11.9027 4.51324C12.0487 4.80824 12.3307 5.01226 12.6577 5.05926L17.1406 5.70721C17.9626 5.82621 18.2906 6.83423 17.6956 7.41223L14.4547 10.5572C14.2177 10.7872 14.1096 11.1182 14.1656 11.4432L14.9066 15.7473C15.0566 16.6203 14.1396 17.2862 13.3536 16.8752L9.46566 14.8403C9.17366 14.6873 8.82563 14.6873 8.53463 14.8403L4.64962 16.8732C3.86262 17.2852 2.94259 16.6182 3.09359 15.7432L3.83468 11.4432C3.89068 11.1182 3.78261 10.7872 3.54561 10.5572L0.304646 7.41223C-0.291354 6.83423 0.0365773 5.82621 0.859577 5.70721L5.34261 5.05926C5.66861 5.01226 5.95061 4.80824 6.09761 4.51324L8.03963 0.59625C8.43063 -0.19875 9.56665 -0.19875 9.96065 0.59625Z" fill="#FDA712"/>
</svg>
