<svg width="24" height="24" viewBox="0 0 24 24" fill="none" xmlns="http://www.w3.org/2000/svg">
<g clip-path="url(#clip0_431_33948)">
<path d="M18.6131 0H5.38691C2.4118 0 0 2.4118 0 5.38691V18.6131C0 21.5882 2.4118 24 5.38691 24H18.6131C21.5882 24 24 21.5882 24 18.6131V5.38691C24 2.4118 21.5882 0 18.6131 0Z" fill="#6772E5"/>
<path fill-rule="evenodd" clip-rule="evenodd" d="M11.0563 9.30917C11.0563 8.73557 11.5301 8.47786 12.2949 8.47786C13.5623 8.50527 14.806 8.82685 15.9278 9.41724V6.01717C14.7736 5.56456 13.5429 5.33876 12.3032 5.35212C9.34376 5.35212 7.36523 6.89836 7.36523 9.50869C7.36523 13.5489 12.9184 12.8921 12.9184 14.6379C12.9184 15.3112 12.3282 15.5274 11.5218 15.5274C10.1012 15.4491 8.71823 15.0421 7.48162 14.3386V17.8218C8.74169 18.3663 10.0992 18.6491 11.4719 18.6531C14.5062 18.6531 16.6011 17.1568 16.6011 14.4966C16.6261 10.1654 11.0563 10.9469 11.0563 9.30917Z" fill="white"/>
</g>
<defs>
<clipPath id="clip0_431_33948">
<rect width="24" height="24" fill="white"/>
</clipPath>
</defs>
</svg>
