<svg width="42" height="17" viewBox="0 0 42 17" fill="none" xmlns="http://www.w3.org/2000/svg">
<path fill-rule="evenodd" clip-rule="evenodd" d="M41.5599 8.78263C41.5599 5.87731 40.1529 3.58414 37.4623 3.58414C34.7619 3.58414 33.1268 5.87681 33.1268 8.75943C33.1268 12.1757 35.0561 13.9007 37.8252 13.9007C39.1759 13.9007 40.1973 13.5946 40.969 13.1631V10.8931C40.1973 11.2792 39.3122 11.5171 38.1885 11.5171C37.0876 11.5171 36.1116 11.1311 35.9867 9.79222H41.5357C41.5357 9.64411 41.5584 9.05465 41.5584 8.78214L41.5599 8.78263ZM35.9581 7.70492C35.9581 6.42233 36.7411 5.88915 37.4564 5.88915C38.1485 5.88915 38.8866 6.42233 38.8866 7.70492H35.9581ZM28.7518 3.58513C27.6395 3.58513 26.9251 4.10696 26.5272 4.47031L26.3791 3.76681H23.8776V17L26.7148 16.3987L26.7262 13.1868C27.135 13.482 27.7363 13.9016 28.7355 13.9016C30.767 13.9016 32.6168 12.2725 32.6168 8.66958C32.6055 5.37819 30.7329 3.58464 28.7463 3.58464L28.7518 3.58513ZM28.0705 11.4051C27.401 11.4051 27.0041 11.1666 26.7311 10.8719L26.7198 6.66078C27.015 6.33149 27.4233 6.10489 28.0705 6.10489C29.1033 6.10489 29.8181 7.26258 29.8181 8.74906C29.8181 10.2696 29.1146 11.4051 28.0705 11.4051ZM19.9741 2.9157L22.8226 2.30353V0L19.9741 0.601307V2.9157ZM19.9741 3.77816H22.8226V13.7086H19.9741V3.77816ZM16.9206 4.61742L16.739 3.77816H14.2873V13.7096H17.1245V6.97871C17.794 6.10489 18.9289 6.26386 19.2809 6.38876V3.77866C18.9176 3.6424 17.5901 3.3926 16.9201 4.61792L16.9206 4.61742ZM11.2462 1.30974L8.47716 1.90068L8.46581 10.9914C8.46581 12.6709 9.72569 13.9081 11.4052 13.9081C12.3358 13.9081 13.0166 13.7377 13.3913 13.5329V11.2288C13.0279 11.3769 11.2349 11.8983 11.2349 10.2188V6.19573H13.3913V3.77816H11.2339L11.2462 1.30974ZM3.57439 6.65535C3.57439 6.21252 3.93774 6.04318 4.53905 6.04318C5.52057 6.06409 6.48384 6.31251 7.35305 6.7689V4.10745C6.4111 3.73225 5.4805 3.58563 4.53905 3.58563C2.23503 3.58563 0.703125 4.78873 0.703125 6.79753C0.703125 9.92996 5.01595 9.43035 5.01595 10.7816C5.01595 11.3034 4.56176 11.4737 3.92639 11.4737C2.98444 11.4737 1.78133 11.0876 0.828027 10.5653V13.2658C1.88352 13.72 2.95087 13.9076 3.92639 13.9076C6.28718 13.9076 7.91042 12.7385 7.91042 10.707C7.89906 7.32528 3.57439 7.92659 3.57439 6.65535Z" fill="#6772E5"/>
</svg>
