<svg width="88" height="88" viewBox="0 0 88 88" fill="none" xmlns="http://www.w3.org/2000/svg">
<path d="M43.9987 7.33301C23.7587 7.33301 7.33203 23.7597 7.33203 43.9997C7.33203 64.2397 23.7587 80.6663 43.9987 80.6663C64.2387 80.6663 80.6654 64.2397 80.6654 43.9997C80.6654 23.7597 64.2387 7.33301 43.9987 7.33301ZM56.942 53.0562C58.0054 54.1196 58.0054 55.8798 56.942 56.9431C56.392 57.4931 55.6954 57.7497 54.9987 57.7497C54.302 57.7497 53.6054 57.4931 53.0554 56.9431L43.9987 47.8863L34.942 56.9431C34.392 57.4931 33.6954 57.7497 32.9987 57.7497C32.302 57.7497 31.6054 57.4931 31.0554 56.9431C29.992 55.8798 29.992 54.1196 31.0554 53.0562L40.112 43.9997L31.0554 34.9431C29.992 33.8798 29.992 32.1196 31.0554 31.0562C32.1187 29.9929 33.8787 29.9929 34.942 31.0562L43.9987 40.113L53.0554 31.0562C54.1187 29.9929 55.8787 29.9929 56.942 31.0562C58.0054 32.1196 58.0054 33.8798 56.942 34.9431L47.8854 43.9997L56.942 53.0562Z" fill="#F04438"/>
</svg>
