<svg width="22" height="21" viewBox="0 0 22 21" fill="none" xmlns="http://www.w3.org/2000/svg">
<path d="M17.4426 20.499H4.05877C2.61977 20.499 1.31977 19.763 0.579769 18.53C-0.15723 17.3 -0.193375 15.8111 0.481625 14.5471L7.08758 2.19214C7.82058 0.819139 9.19071 0 10.7487 0C12.3067 0 13.6766 0.819139 14.4096 2.19214L21.0156 14.5471C21.6926 15.8111 21.6566 17.3 20.9186 18.53C20.1836 19.763 18.8826 20.499 17.4426 20.499ZM10.7507 1.49902C9.75467 1.49902 8.88056 2.02195 8.41156 2.89795L1.8056 15.2529C1.3806 16.0479 1.40461 16.9841 1.86761 17.7581C2.33361 18.5351 3.15275 18.998 4.05975 18.998H17.4438C18.3508 18.998 19.1707 18.5341 19.6357 17.7581C20.0987 16.9851 20.1207 16.0489 19.6967 15.2529L13.0908 2.89795C12.6208 2.02195 11.7467 1.49902 10.7507 1.49902ZM11.5007 11.749V7.74902C11.5007 7.33502 11.1647 6.99902 10.7507 6.99902C10.3367 6.99902 10.0007 7.33502 10.0007 7.74902V11.749C10.0007 12.163 10.3367 12.499 10.7507 12.499C11.1647 12.499 11.5007 12.163 11.5007 11.749ZM11.7707 14.749C11.7707 14.197 11.3237 13.749 10.7707 13.749H10.7607C10.2087 13.749 9.76556 14.197 9.76556 14.749C9.76556 15.301 10.2187 15.749 10.7707 15.749C11.3227 15.749 11.7707 15.301 11.7707 14.749Z" fill="white"/>
</svg>
