<svg width="28" height="28" viewBox="0 0 28 28" fill="none" xmlns="http://www.w3.org/2000/svg">
<path d="M10.3454 11.3333C7.22004 11.3333 4.67871 8.79067 4.67871 5.66667C4.67871 2.54267 7.22004 0 10.3454 0C13.4707 0 16.012 2.54267 16.012 5.66667C16.012 8.79067 13.4707 11.3333 10.3454 11.3333ZM10.3454 2C8.32271 2 6.67871 3.644 6.67871 5.66667C6.67871 7.68933 8.32271 9.33333 10.3454 9.33333C12.368 9.33333 14.012 7.68933 14.012 5.66667C14.012 3.644 12.3667 2 10.3454 2ZM11.6667 26H5C1.776 26 0 24.2334 0 21.0267C0 17.4774 2.008 13.3333 7.66667 13.3333H13C14.136 13.3333 15.1507 13.4987 16.0187 13.8241C16.536 14.0187 16.7974 14.5946 16.6027 15.112C16.408 15.6293 15.8333 15.8906 15.3146 15.696C14.6746 15.4546 13.8947 15.3333 13 15.3333H7.66667C2.40933 15.3333 2 19.692 2 21.0267C2 23.1107 2.89733 24 5 24H11.6667C12.2187 24 12.6667 24.448 12.6667 25C12.6667 25.552 12.2187 26 11.6667 26ZM23.876 27.2386C23.62 27.2386 23.3614 27.1787 23.1227 27.0547L21 25.9627L18.8787 27.0547C18.3174 27.3427 17.6547 27.288 17.1507 26.916C16.6507 26.548 16.4066 25.9413 16.5146 25.3333L16.9134 23.0534L15.1574 21.376C14.7161 20.9573 14.5574 20.336 14.7414 19.7573C14.928 19.1733 15.424 18.7559 16.0347 18.6693L18.4827 18.3213L19.536 16.2306C19.8146 15.6773 20.376 15.3346 21 15.3346C21.624 15.3346 22.1854 15.6786 22.464 16.2319L23.5173 18.3226L25.9653 18.6707C26.576 18.7574 27.072 19.1733 27.2586 19.7586C27.444 20.3386 27.2853 20.9587 26.8426 21.3787L25.0881 23.0547L25.488 25.3374C25.5946 25.9467 25.3493 26.5519 24.8506 26.9199C24.5599 27.1306 24.2186 27.2386 23.876 27.2386ZM21 23.9134C21.252 23.9134 21.504 23.972 21.7347 24.0907L23.3867 24.9414L23.0773 23.1733C22.988 22.6507 23.1613 22.1239 23.5439 21.7599L24.8359 20.528L23.0293 20.272C22.5106 20.1986 22.0613 19.876 21.8293 19.4106L21.0026 17.7707L20.1746 19.4134C19.9426 19.8761 19.4934 20.1973 18.9761 20.272L17.1693 20.528L18.4613 21.7614C18.8426 22.1254 19.0174 22.6521 18.9294 23.1707L18.62 24.9414L20.272 24.0907C20.496 23.972 20.748 23.9134 21 23.9134ZM25.6839 20.6494H25.6973H25.6839ZM18.3853 18.5133L18.384 18.5146L18.3853 18.5133ZM23.6133 18.5107L23.6147 18.512C23.6134 18.512 23.6133 18.5107 23.6133 18.5107Z" fill="#DD5454"/>
</svg>
