<svg width="34" height="10" viewBox="0 0 34 10" fill="none" xmlns="http://www.w3.org/2000/svg">
<path d="M31.0947 0.527344H28.9992C28.3657 0.527344 27.8783 0.702782 27.5859 1.27296L23.5898 9.47471H26.4164C26.4164 9.47471 26.9037 8.37822 27.0011 8.11506C27.2935 8.11506 30.0713 8.11506 30.4612 8.11506C30.5587 8.42208 30.8023 9.43085 30.8023 9.43085H33.3364L31.0947 0.527344ZM27.7809 6.27296C28.0245 5.74664 28.853 3.77296 28.853 3.77296C28.853 3.81682 29.0967 3.24664 29.1941 2.93962L29.3891 3.7291C29.3891 3.7291 29.9251 5.87822 30.0226 6.31682H27.7809V6.27296Z" fill="#3362AB"/>
<path d="M23.7876 6.53488C23.7876 8.37699 21.9357 9.60506 19.0605 9.60506C17.8422 9.60506 16.6726 9.38576 16.0391 9.1226L16.4289 7.10506L16.7701 7.23664C17.6472 7.58751 18.232 7.71909 19.3042 7.71909C20.0839 7.71909 20.9124 7.45593 20.9124 6.8419C20.9124 6.44716 20.5712 6.184 19.4991 5.74541C18.4757 5.30681 17.1112 4.60506 17.1112 3.33313C17.1112 1.57874 19.0118 0.394531 21.6921 0.394531C22.7155 0.394531 23.5927 0.56997 24.1287 0.789268L23.7389 2.71909L23.5439 2.54365C23.0566 2.36822 22.4231 2.19278 21.4972 2.19278C20.4738 2.23664 19.9864 2.63137 19.9864 2.98225C19.9864 3.37699 20.5712 3.684 21.4972 4.07874C23.0566 4.73664 23.7876 5.48225 23.7876 6.53488Z" fill="#3362AB"/>
<path d="M0.00390625 0.614892L0.0526392 0.439453H4.24367C4.82847 0.439453 5.26706 0.614892 5.41326 1.18507L6.33919 5.13244C5.41326 3.02717 3.26901 1.31665 0.00390625 0.614892Z" fill="#F9B50B"/>
<path d="M12.2392 0.526282L7.99939 9.42979H5.12415L2.6875 1.97365C4.44189 2.98242 5.90387 4.56137 6.43994 5.65786L6.73233 6.57891L9.36391 0.482422H12.2392V0.526282Z" fill="#3362AB"/>
<path d="M13.358 0.482422H16.0383L14.3327 9.42979H11.6523L13.358 0.482422Z" fill="#3362AB"/>
</svg>
