<svg width="508" height="4" viewBox="0 0 508 4" fill="none" xmlns="http://www.w3.org/2000/svg">
<path d="M313.612 0.140695C334.209 0.202587 356.758 0.283039 377.436 0.503353C379.975 0.530098 379.801 0.630083 380.513 0.648422C382.46 0.698494 383.633 0.58933 385.052 0.609152C391.951 0.703068 398.405 0.770536 405.173 0.859703C412.145 0.951513 408.847 1.18496 411.269 1.26359C416.003 1.41255 411.977 1.05694 413.837 0.996274C419.263 1.0608 424.738 1.14051 430.173 1.21621C428.846 1.23164 427.519 1.24775 426.177 1.26346C428.547 1.28778 431.938 1.35294 427.97 1.40267C428.847 1.42881 429.665 1.45756 430.567 1.48226C430.814 1.38043 435.008 1.40084 435.392 1.34651C435.775 1.29201 433.416 1.28631 433.431 1.28137C433.587 1.21 443.262 1.38847 443.959 1.39872C445.804 1.43234 444.187 1.52724 445.756 1.53081C448.454 1.53488 446.657 1.32063 450.31 1.61614C451.763 1.53838 451.89 1.58514 453.73 1.60224C453.972 1.60452 453.784 1.55564 453.891 1.55514C456.676 1.54077 454.535 1.61186 454.55 1.61729C454.803 1.69954 457.792 1.67975 458.422 1.6911C466.323 1.8245 472.113 1.88525 480.451 1.92023C482.254 1.92665 487.743 1.92855 489.488 1.94007C491.208 1.95027 490.285 1.9682 491.185 1.9792C492.628 1.93293 494.005 1.94303 497.245 1.97265C498.451 1.95445 498.296 1.97162 500.607 1.97496C502.531 1.97527 505.883 1.98808 508 2C505.573 1.98972 505.824 1.99129 503.091 1.98694C502.182 1.98526 492.696 1.9615 493.402 1.99639C493.77 2.01218 496.914 1.99747 497.036 2.0005C497.743 2.01236 495.988 2.03199 494.433 2.02958C494.821 2.0255 495.288 2.02152 495.704 2.01798C492.211 2.00079 494.613 2.08285 491.958 2.01106C491.63 2.0014 491.757 1.99124 491.216 1.97992C491.105 1.98441 491.767 1.99565 491.197 1.99748C490.615 1.99988 489.511 1.97635 489.346 1.99576C489.1 2.02472 491.51 2.0113 491.691 2.01297C491.693 2.01282 491.695 2.01266 491.697 2.01251C493.3 2.02373 489.952 2.02987 489.792 2.03309C488.756 2.05294 489.462 2.06444 487.908 2.08604C487.022 2.09887 484.763 2.10326 483.93 2.11008C483.102 2.11742 484.39 2.12866 483.833 2.13511C483.276 2.14194 482.582 2.13189 481.928 2.13967C481.648 2.14311 481.662 2.16403 481.527 2.16558C480.074 2.18244 481.027 2.13211 479.709 2.1411C478.855 2.14565 475.99 2.20927 477.965 2.21096C477.016 2.222 476.09 2.23192 475.145 2.24246C475.741 2.24603 476.357 2.2467 476.938 2.2509C475.16 2.25192 474.356 2.30227 473.242 2.31561C472.128 2.32919 471.129 2.27794 469.903 2.31612C467.287 2.40138 473.766 2.31706 474.57 2.3202C474.883 2.32103 473.68 2.37497 473.494 2.37847C472.671 2.39259 471.697 2.37008 471.062 2.37725C468.79 2.40361 467.399 2.46422 465.233 2.49771C457.859 2.60951 448.711 2.7482 441.725 2.83967C439.123 2.87446 437.558 2.80387 436.39 2.81696C433.658 2.84847 433.323 2.93129 430.941 2.96039C427.394 3.00475 422.398 2.97739 419.438 2.98488C417.388 2.99042 415.533 3.09752 415 3.10508C407.592 3.2071 398.58 3.28548 392.441 3.33608C389.554 3.36082 388.183 3.24681 387.587 3.25453C385.024 3.28831 385.711 3.39151 383.633 3.39643C382.511 3.3992 382.301 3.29515 382.151 3.29205C380.828 3.2661 380.565 3.40662 379.533 3.41894C373.598 3.4898 367.881 3.43367 362.005 3.45307C361.579 3.45446 361.616 3.38703 361.34 3.39203C360.154 3.41523 360.706 3.51835 359.466 3.53363C356.889 3.56593 354.242 3.56387 351.509 3.56503C351.239 3.56518 351.117 3.47599 350.498 3.47912C349.878 3.48226 349.408 3.57041 348.434 3.57089C345.89 3.57228 343.38 3.48038 340.686 3.48651C340.241 3.48763 339.688 3.6025 339.02 3.60453C336.922 3.61115 333.816 3.52143 332.018 3.52462C326.088 3.53651 320.617 3.62318 315.031 3.64285C313.718 3.64723 312.555 3.53962 311.872 3.53888C310.333 3.53762 311.494 3.63964 309.934 3.64479C297.192 3.68601 284.401 3.66133 271.508 3.68177C266.445 3.6897 260.283 3.80762 255.389 3.77617C254.813 3.77238 254.371 3.75735 254 3.73772C253.06 3.68797 252.578 3.60873 251.546 3.60761C248.98 3.60541 248.514 3.80205 245.806 3.82047C243.646 3.83481 241.169 3.63718 238.921 3.64759C236.673 3.65793 235.636 3.84691 233.053 3.86647C230.926 3.88236 227.957 3.79239 225.641 3.80254C204.42 3.89806 183.524 3.88441 162.172 3.63702C154.638 3.55232 146.279 3.52184 138.493 3.32486C137.762 3.30648 138.881 3.16681 136.536 3.18465C135.276 3.19452 133.518 3.30797 130.606 3.29473C113.295 3.20714 94.8295 2.85112 77.2274 2.75741C50.8611 2.74534 23.5355 2.3411 0.623507 2.00472C-0.500358 1.99578 0.109083 2.00204 0.782412 2.00169C1.40728 2.00362 1.98498 2.00694 2.63889 2.01212C3.46234 2.00283 3.31714 2.00239 6.36929 2.01046C8.24836 2.01513 6.74742 1.99968 7.74905 1.99559C9.04752 1.9931 15.144 1.94955 13.9715 1.99285C14.3494 1.98557 14.6982 1.97808 15.0664 1.96991C19.4801 1.95485 23.7683 1.92931 28.085 1.89041C28.8307 1.88371 28.8651 1.85788 29.6353 1.84997C31.704 1.82811 33.3463 1.83859 35.478 1.82633C36.636 1.81958 36.7966 1.78154 38.3131 1.77558C39.8287 1.76926 39.7955 1.82564 41.8633 1.75442C40.5164 1.69156 46.5246 1.70658 48.6613 1.69138C48.9714 1.68983 51.5147 1.5986 52.8665 1.59749C54.2229 1.59652 56.2821 1.63725 58.3797 1.59427C59.3632 1.57392 59.96 1.5017 61.021 1.48985C61.7671 1.48143 62.6634 1.538 63.6081 1.53505C64.5524 1.53221 66.5959 1.46501 66.9703 1.4612C68.3218 1.44842 66.8308 1.50553 67.7551 1.50202C72.2172 1.48424 77.4016 1.48465 81.8008 1.42299C82.3417 1.41531 81.5933 1.35434 81.6652 1.35182C85.3367 1.24698 83.377 1.34561 84.3685 1.39967C85.3289 1.4519 92.3569 1.38527 92.4087 1.25815C92.6246 1.41361 94.1869 1.28519 94.5927 1.27761C96.1718 1.24991 95.8621 1.39145 97.3929 1.34025C97.9546 1.32127 96.8609 1.23203 97.4646 1.23132C98.9568 1.22874 100.3 1.37731 102.286 1.38493C102.766 1.38674 102.922 1.3149 103.774 1.31303C104.628 1.31083 108.207 1.38359 106.555 1.23732C108.725 1.35015 109.162 1.28082 111.687 1.27194C112.326 1.26976 113.149 1.38903 114.51 1.34547C114.97 1.33059 114.957 1.21083 115.65 1.20643C117.234 1.19576 118.726 1.31536 120.736 1.31302C124.496 1.30899 128.498 1.19958 132.418 1.2179C133.483 1.22319 133.217 1.35726 134.767 1.35519C134.994 1.35474 136.86 1.23198 137.931 1.23902C138.576 1.24306 141.914 1.31603 142.588 1.32122C143.701 1.32902 143.9 1.19329 144.51 1.21769C146.274 1.28831 144.859 1.49405 146.981 1.21274C147.679 1.36337 148.919 1.34492 149.316 1.53393C150.038 1.32425 150.974 1.52255 152.374 1.4497C153.774 1.37703 154.922 0.961557 155.262 1.40383C155.916 1.34881 158.702 1.24916 159.172 1.24094C160.557 1.21805 159.817 1.34457 160.862 1.32535C161.046 1.32211 160.853 1.23708 162.034 1.24254C162.81 1.24615 168.489 1.23806 168.829 1.24947C172.698 1.37889 166.72 1.34092 165.883 1.43634C165.735 1.4119 165.589 1.38742 165.431 1.36336C163.721 1.32599 164.695 1.5192 165.47 1.56382C166.245 1.6084 167.694 1.51871 168.338 1.5827C168.659 1.61491 168.46 1.85242 167.489 1.82419C168.528 1.89665 167.11 1.97405 167.52 2.04239C167.972 2.11725 172.641 2.14293 172.665 2.01038C171.794 2.00576 170.708 2.01028 169.827 2.00486C168.673 1.77938 172.176 0.991989 175.388 1.2983C177.718 1.52335 173.877 1.71154 179.39 1.51177C178.542 1.50343 177.825 1.48258 177.055 1.4739C176.973 1.29949 178.222 1.4896 178.867 1.43311C179.176 1.4052 177.269 1.28467 178.925 1.24029C180.349 1.48874 181.445 1.2345 183.833 1.22658C183.17 1.27305 182.505 1.31909 181.841 1.36515C185.877 1.54393 176.503 1.61322 184.351 1.7095C183.406 1.71832 182.467 1.71679 181.518 1.72985C181.978 1.82229 181.242 2.09426 181.653 2.15174C182.734 2.30309 184.332 2.21316 185.649 2.227C186.226 2.23293 185.868 2.30691 185.917 2.30736C186.706 2.31615 186.532 2.20719 187.225 2.20054C188.097 2.19208 190.615 2.2999 191.023 2.28811C192.079 2.2575 190.32 2.03986 190.422 2.02389C191.096 1.91891 192.471 2.00597 192.399 1.86819C189.089 1.96249 179.551 1.84733 188.18 1.61679C185.801 1.3984 186.488 1.09601 189.909 1.06444C192.738 1.03878 190.912 1.1648 192.385 1.29766C192.576 1.31413 196.365 1.3744 196.559 1.27778C196.408 1.49976 197.641 1.6959 196.813 1.92546C196.692 1.95916 195.137 1.94597 195.68 2.12983C195.951 2.22217 196.729 2.424 196.604 2.54174C196.924 2.46017 197.258 2.36821 197.583 2.28278C199.913 2.25998 200.244 2.34859 201.518 2.50375C201.46 2.43925 200.283 2.16867 202.071 2.25157C202.162 2.25654 202.242 2.35362 203.15 2.40248C204.986 2.50038 205.369 2.53162 203.96 2.81602C207.762 2.65703 208.582 2.97856 212.481 2.88949C211.706 2.51622 210.335 2.60812 206.764 2.6756C206.609 2.58761 206.537 2.50063 206.377 2.41185C211.129 2.61427 208.781 2.59323 211.473 2.41536C212.132 2.37176 215.646 2.42061 214.473 2.16876C214.196 2.10955 212.014 2.11605 212.264 2.02313C212.312 2.00548 214.966 1.96028 215.2 1.98435C218.136 2.28256 212.889 2.48878 220.975 2.38339C221.197 2.38028 221.276 2.2708 221.711 2.25566C222.53 2.22739 222.54 2.35443 223.271 2.32534C224.003 2.29623 225.016 2.12508 226.116 2.28374C228.126 2.57338 223.384 2.73654 221.271 2.58254C220.414 2.95699 235.506 2.97829 236.441 2.94526C240.524 2.80556 233.729 2.88408 233.379 2.77862C233.234 2.73399 233.306 2.17027 231.586 2.53544C231.078 2.64349 233.204 2.78737 231.935 2.84644C230.666 2.9054 231.169 2.73987 231.077 2.72825C230.761 2.68845 229.411 2.74916 229.236 2.72555C226.542 2.36817 226.789 1.83014 230.36 2.6267C231.915 2.44718 228.345 2.15964 230.278 2.03785C232.628 1.8893 234.343 2.14637 234.639 2.1581C238.179 2.29577 234.096 1.91945 238.421 2.03974C240.829 2.10687 234.818 2.28992 240.316 2.26592C244.919 2.24546 242.434 2.11383 242.768 1.81539C242.847 1.74557 245.369 1.65962 241.935 1.69073C241.838 1.76848 241.655 1.87093 241.437 1.94262C240.594 1.88582 239.19 1.4973 238.743 1.48389C236.558 1.41991 236.663 1.62125 235.375 1.38452C236.295 1.64363 234.797 1.48776 234.235 1.54267C232.149 1.74494 234.885 1.81874 230.201 1.56135C230.811 1.68233 231.363 1.80124 231.955 1.92207C231.393 1.92627 230.83 1.93056 230.269 1.93475C229.43 1.66781 226.445 1.70322 229.149 1.43379C225.898 1.35907 224.584 1.41814 223.872 1.62483C223.736 1.6643 223.248 1.6802 222.674 1.68417C222.783 1.74213 222.922 1.92135 222.831 1.94334C222.022 2.13653 220.768 1.80301 221.196 1.67576C220.794 1.6698 220.476 1.66278 220.364 1.65973C219.653 1.64028 221.047 1.52469 220.471 1.48553C220.281 1.47283 218.277 1.49893 218.238 1.45233C217.997 1.15375 221.294 1.36601 214.673 1.19873C214.513 1.46968 217.588 1.40809 216.799 1.69716C215.951 2.00714 214.221 1.59256 213.843 1.97176C213.703 1.90947 213.641 1.85753 213.52 1.78666C210.841 1.95207 210.805 1.63733 209.987 1.56862C208.398 1.43454 201.092 1.45984 207.652 1.72655C206.692 1.754 205.713 1.76685 204.759 1.79097C204.541 1.2327 205.122 1.45412 200.524 1.37386C199.512 1.35606 199.182 1.11357 198.189 1.4034C198.324 1.12016 195.329 1.29533 195.05 1.26138C193.257 1.04358 199.913 0.718205 200.767 1.21954C201.89 1.02212 201.886 1.28107 203.14 1.24524C204.952 1.19338 205.204 1.14165 207.355 1.33223C209.473 1.05713 199.067 1.22454 205.375 0.855399C211.11 0.515983 241.988 0.262516 254 0.193492C255.203 0.18586 256.217 0.179621 256.998 0.174656C272.526 0.0777006 280.69 0.0248079 294.639 0.0743551C296.015 0.0782068 306.402 0.0828688 304.243 0.388932C303.933 0.43239 299.465 0.542307 303.297 0.795995C302.518 0.649273 304.771 0.560093 304.96 0.545465C309.296 0.211673 306.786 0.120415 313.612 0.140695ZM333.85 2.8401C324.94 2.79263 331.485 2.97554 329.635 3.42738C330.778 3.42446 331.917 3.4214 333.061 3.41826C332.76 3.39161 332.464 3.36495 332.164 3.33815C332.162 3.33815 332.161 3.33816 332.16 3.33816C332.722 3.17143 333.288 3.00536 333.85 2.8401ZM479.498 2.26709C479.15 2.28385 478.807 2.30104 478.43 2.31872C477.253 2.32622 476.08 2.33318 474.903 2.33953C475.044 2.32751 475.179 2.31552 475.32 2.30375C476.712 2.29216 478.101 2.2804 479.498 2.26709ZM220.025 2.65156C218.358 2.47421 218.509 2.78859 216.295 2.64379C216.566 2.87533 216.867 3.10209 217.153 3.33182C218.838 3.30018 219.221 3.21232 221.052 3.27155C220.839 3.19652 220.621 3.12108 220.413 3.0457C220.108 3.06139 219.783 3.07923 219.488 3.09306C219.019 2.88393 221.944 2.85518 220.031 2.65108C220.029 2.65124 220.027 2.6514 220.025 2.65156ZM202.947 2.72799C202.05 2.69718 198.499 2.58287 198.015 2.67556C196.372 2.98884 206.391 2.80462 199.007 3.07399C199.041 3.11848 199.007 3.16194 199.007 3.20593C200.354 3.2244 201.697 3.2407 203.053 3.25604C202.981 3.07948 203.029 2.90539 202.947 2.72799ZM301.625 2.91924C300.247 2.89623 293.68 3.05691 295.821 3.25872C296.451 3.31734 299.383 3.02047 300.497 3.03171C301.219 3.03872 300.41 3.19945 301.834 3.13841C301.771 3.06836 301.732 2.99063 301.621 2.91972C301.622 2.91956 301.624 2.9194 301.625 2.91924ZM304.208 1.99282C302.784 2.02104 301.34 2.05704 299.906 2.08747C300.953 2.26905 303.011 2.15182 303.132 2.40642C302.74 2.42597 302.352 2.44545 301.96 2.46508C301.66 2.40951 301.364 2.35381 301.069 2.29809C299.838 2.4375 300.583 2.5063 298.292 2.46761C299.677 2.85461 299.935 3.05961 303.859 2.66556C303.118 2.87538 303.816 3.5535 305.991 3.06439C306.398 2.97391 304.698 2.91652 304.679 2.90215C304.418 2.72416 305.36 2.60942 305.08 2.44145C304.954 2.36544 303.917 2.36723 303.762 2.26139C303.691 2.20969 304.677 2.06224 304.208 1.99282ZM307.047 2.8932C306.606 3.00163 308.113 3.25383 309.421 3.19919C311.461 3.11512 308.244 2.87983 307.047 2.8932ZM479.506 2.26697C479.503 2.26701 479.5 2.26705 479.498 2.26709C479.499 2.26703 479.5 2.26696 479.502 2.2669C479.503 2.26692 479.504 2.26695 479.506 2.26697ZM207.568 2.85907C206.512 2.9501 204.949 2.93425 205.065 3.08075C204.551 3.05112 204.032 3.022 203.518 2.99248C203.523 3.03638 203.533 3.08038 203.538 3.12384C205.083 3.154 206.624 3.18432 208.169 3.21507C207.975 3.09646 207.796 2.97752 207.568 2.85907ZM190.732 2.73378C188.79 2.71635 190.418 2.91259 189.992 3.00541C189.566 3.09797 187.835 3.01806 188.039 3.15213C189.182 3.16024 190.375 3.16846 191.533 3.17609C191.227 3.02894 191.014 2.87952 190.728 2.73378C190.73 2.73378 190.731 2.73378 190.732 2.73378ZM370.212 2.86584C368.894 2.83579 369.432 2.7073 366.83 2.86468C366.832 2.86467 366.834 2.86466 366.836 2.86466C369.312 2.95962 372.499 3.03336 375.231 2.92403C373.56 2.8024 372.285 2.91236 370.212 2.86584ZM224.633 3.11391C225.19 2.991 222.599 2.88585 222.027 2.99963C221.102 3.18351 223.785 3.30036 224.633 3.11391ZM423.435 1.99314C425.44 1.78435 421.642 1.53292 417.664 1.62412C417.32 1.63296 419.888 1.71125 419.127 1.75239C419.051 1.75652 417.641 1.748 417.292 1.77875C416.943 1.80967 417.31 1.88326 416.738 1.91356C415.735 1.96733 413.468 1.86408 412.717 1.93622C412.618 1.94623 414.024 2.04733 414.112 2.05082C415.556 2.11019 416.947 1.98028 417.17 1.97998C418.318 1.97593 418.145 2.07524 418.436 2.09834C418.983 2.14156 419.947 2.09691 420.015 2.10018C421.758 2.18358 417.776 2.1644 417.238 2.20154C415.79 2.30251 417.131 2.38915 413.657 2.45831C413.327 2.46419 409.378 2.47593 414.354 2.56993C404.584 2.86563 419.264 2.67593 420.858 2.61764C421.593 2.59062 420.48 2.5039 420.926 2.46011C421.943 2.3607 423.678 2.33928 423.523 2.20896C423.188 1.93399 420.91 2.1159 419.341 2.0704C419.505 2.00822 419.568 1.94768 419.874 1.88747C419.404 1.96927 423.29 2.00947 423.435 1.99368C423.435 1.9935 423.435 1.99332 423.435 1.99314ZM398.7 2.37473C396.506 2.27783 396.661 2.49218 394.65 2.37384C392.877 2.57452 396.374 2.55006 396.782 2.55916C398.642 2.60118 398.599 2.80703 400.503 2.73418C399.849 2.61663 399.316 2.49576 398.7 2.37473ZM417.79 2.39954C416.322 2.49806 418.949 2.48593 419.056 2.50275C420.216 2.68319 412.35 2.6863 417.79 2.39954ZM293.075 2.31473C292.329 2.30455 292.802 2.45269 292.145 2.49693C291.486 2.54165 289.234 2.41555 289.29 2.50816C289.348 2.60143 293.475 2.83786 289.333 2.89407C289.473 2.94607 289.426 2.985 289.494 3.03203C290.632 3.03209 291.781 3.03297 292.92 3.03288C292.295 2.88425 291.654 2.72746 291.054 2.58312C291.693 2.46355 292.053 2.61611 292.087 2.61605C292.087 2.61589 292.087 2.61573 292.087 2.61557C293.278 2.60251 294.75 2.33733 293.075 2.31473ZM351.79 2.68071C352.013 2.35626 350.255 2.72169 349.533 2.76472C348.811 2.80708 347.819 2.6883 348.192 2.82845C349.359 2.92207 351.766 2.71641 351.79 2.68029C351.79 2.68043 351.79 2.68057 351.79 2.68071ZM386.777 2.40371C384.937 2.47501 385.229 2.54805 382.978 2.47044C383.066 2.53844 383.153 2.60782 383.24 2.67459C385.028 2.66904 384.902 2.4742 386.97 2.5463C387.31 2.55803 386.583 2.7153 388.114 2.65983C387.668 2.57949 387.217 2.48946 386.777 2.40371ZM377.659 2.68389C379.771 2.6644 381.447 2.10169 377.556 2.36182C376.98 2.40066 376.07 2.69766 377.659 2.68389ZM312.56 2.28742C308.967 2.26901 313.049 2.38094 313.985 2.48765C305.619 2.58201 314.929 2.45842 315.763 2.81416C316.786 2.71027 318.699 2.47661 316.574 2.41631C315.687 2.39118 316.01 2.49737 315.957 2.49697C314.325 2.4723 314.522 2.29743 312.56 2.28742ZM402.514 2.35307C402.378 2.35712 402.591 2.44098 402.159 2.45928C401.728 2.47761 400.751 2.42089 400.654 2.47367C400.557 2.52714 402.517 2.56025 403.119 2.52004C403.719 2.47957 403.74 2.31787 402.514 2.35307ZM388.724 2.15815C386.929 2.2274 389.865 2.56245 390.255 2.55789C393.685 2.53004 388.622 2.26854 388.724 2.15815ZM320.905 1.53478C316.573 1.75467 319.742 2.14999 322.455 2.37841C322.813 2.33097 323.181 2.28356 323.534 2.23677C321.906 2.52342 319.053 2.81184 325.401 2.55344C321.927 2.49077 324.836 2.41038 324.858 2.39453C325.241 1.87151 320.095 2.11529 320.909 1.53478C320.907 1.53478 320.906 1.53478 320.905 1.53478ZM408.353 2.42367C410.238 2.41538 415.139 2.34213 412.853 2.19761C411.351 2.27046 409.855 2.34587 408.353 2.42367ZM249.992 1.53341C248.451 1.39216 247.031 1.39476 245.132 1.40438C246.842 1.60966 245.718 1.63346 245.142 1.68383C244.267 1.75965 246.386 1.75329 246.392 1.76715C246.353 1.96247 245.002 1.99279 248.078 1.98814C247.317 2.0562 246.567 2.12475 245.806 2.19228C248.151 2.20125 248.703 2.32873 250.19 2.4846C248.746 2.1039 250.647 2.34233 252.372 2.15292C253.233 2.05807 250.776 1.60562 249.986 1.53341C249.988 1.53341 249.99 1.53341 249.992 1.53341ZM316.428 1.45849C315.982 1.52243 315.575 1.60935 315.143 1.68292C314.673 1.68966 314.203 1.69555 313.733 1.70233C313.674 1.64501 313.626 1.58505 313.558 1.52988C312.939 1.51262 313.18 1.59269 312.996 1.60005C312.996 1.59974 312.996 1.59943 312.996 1.59912C310.357 1.70304 309.276 1.69154 307.208 1.51059C307.208 1.68823 307.208 1.86587 307.208 2.04351C307.673 2.02653 308.142 2.01002 308.607 1.99357C308.854 1.89835 309.102 1.8032 309.349 1.70824C309.887 1.76097 310.42 1.81318 310.958 1.86561C311.388 1.83162 311.906 1.79597 312.279 1.76302C314.425 2.25502 309.548 1.92057 309.504 2.12563C309.475 2.25785 314.388 2.24926 315.095 2.15903C315.197 2.1459 314.135 1.78144 315.932 1.97138C316.213 2.00172 316.312 2.78636 318.25 2.15022C318.526 2.06035 317.562 1.57382 316.428 1.45849ZM298.592 1.17998C301.354 1.70112 291.161 1.14345 295.559 1.57525C294.305 1.81393 294.538 1.81147 295.802 2.02384C295.913 2.04285 295.039 2.10869 295.114 2.11706C296.296 2.23403 297.72 2.17154 297.73 2.38388C298.049 2.37239 298.35 2.36217 298.67 2.35072C297.338 2.15132 299.455 2.01619 300.274 1.84832C300.647 1.77224 299.79 1.74843 300.104 1.68183C300.22 1.65754 301.417 1.70667 301.466 1.63701C301.568 1.4795 300.816 1.26595 299.542 1.14778C299.542 1.14762 299.542 1.14747 299.542 1.14731C299.222 1.15729 298.912 1.1695 298.592 1.17998ZM357.616 1.6653C358.086 1.91304 359.969 1.98151 356.35 2.10355C356.529 2.15229 356.714 2.20052 356.893 2.24905C357.503 2.24418 358.094 2.23939 358.714 2.23494C360.575 1.51329 363.971 2.32524 361.796 1.81712C361.558 1.76191 360.11 1.82192 361.54 1.67366C361.538 1.67352 361.536 1.67339 361.534 1.67325C359.538 1.71643 359.287 1.80404 357.616 1.6653ZM344.258 1.82943C339.655 2.37536 350.618 2.12893 348.787 1.98873C348.622 1.97543 343.899 2.09256 344.258 1.82943ZM381.192 1.44783C379.128 1.43326 378.992 1.68797 379.2 1.77976C379.408 1.87172 380.837 1.78048 381.021 1.7952C381.622 1.84291 380.348 1.87324 381.128 1.9384C381.386 1.95998 384.98 2.0485 385.145 2.03749C386.059 1.97876 384.723 1.77519 384.984 1.75185C385.837 1.67701 386.994 1.78381 387.242 1.67729C387.774 1.45056 385.616 1.68502 385.252 1.68905C384.152 1.69821 384.248 1.56803 383.424 1.53969C382.601 1.51134 382.063 1.55508 381.337 1.54403C381.095 1.54031 381.296 1.44895 381.192 1.44783ZM374.368 1.97849C376.524 1.78408 371.276 1.56193 370.654 1.6063C368.822 1.74469 373.336 2.07438 374.368 1.97849ZM305.506 1.9631C307.478 1.78715 302.885 1.642 301.572 1.71268C301.816 1.78702 304.828 2.02417 305.506 1.9631ZM322.106 1.53694C320.294 1.58864 322.697 1.97635 324.209 1.96964C325.095 1.71796 324.261 1.76766 323.273 1.7567C322.286 1.7456 323.52 1.49696 322.106 1.53694ZM403.574 1.71682C403.183 1.71129 396.882 1.85449 400.503 1.92088C400.779 1.92555 405.189 1.90192 405.524 1.87551C406.196 1.82178 404.582 1.72717 403.574 1.71682ZM330.797 1.18045C329.838 1.39288 328.895 1.38941 329.776 1.64289C329.778 1.64289 329.779 1.64289 329.78 1.64289C327.353 1.7187 327.245 1.19873 326.722 1.20869C324.892 1.24447 326.626 1.61825 325.478 1.73908C328.147 1.62649 327.382 1.87574 329.412 1.89189C329.867 1.89525 331.69 1.74833 331.956 1.65709C332.222 1.56573 331.292 1.28941 330.797 1.18045ZM412.475 1.69931C410.348 1.63695 408.401 1.87415 411.351 1.914C412.79 1.93247 413.773 1.73589 412.475 1.69931ZM199.879 1.43865C200.204 1.53408 200.538 1.62927 200.887 1.72413C200.102 1.7477 199.317 1.77166 198.532 1.79549C199.152 1.76504 199.773 1.73496 200.398 1.70477C198.925 1.67195 198.252 1.49905 199.875 1.43866C199.876 1.43866 199.878 1.43865 199.879 1.43865ZM147.442 1.45248C146.783 1.37476 145.485 1.62267 145.65 1.64119C146.89 1.78227 148.357 1.56139 147.442 1.45248ZM302.594 1.08773C300.144 1.04385 301.829 1.51586 303.33 1.54855C302.412 1.45817 303.984 1.11251 302.594 1.08773ZM165.883 1.43634C166.103 1.47273 166.325 1.50919 166.571 1.54576C165.796 1.49562 165.662 1.4616 165.883 1.43634ZM402.572 1.4323C402.198 1.40642 399.432 1.37406 399.059 1.4037C398.284 1.46682 400.44 1.65373 401.71 1.60161C401.85 1.59583 402.944 1.4581 402.566 1.43228C402.568 1.43229 402.57 1.4323 402.572 1.4323ZM196.565 1.26527C196.57 1.26968 196.567 1.27389 196.559 1.27778C196.562 1.27366 196.561 1.26941 196.565 1.26527ZM92.3874 1.24506C92.4024 1.24945 92.4105 1.25386 92.4087 1.25815C92.4029 1.25398 92.3912 1.24964 92.3874 1.24506ZM383.066 1.05362C382.145 0.704268 380.023 0.874753 381.699 1.0558C381.793 1.06524 382.842 1.05177 383.066 1.05362Z" fill="#DD5454"/>
</svg>
