<svg width="240" height="160" viewBox="0 0 240 160" fill="none" xmlns="http://www.w3.org/2000/svg">
<g clip-path="url(#clip0_431_33140)">
<path d="M240 0H0V160H240V0Z" fill="white"/>
<path d="M119.479 152.073C171.403 152.073 213.495 150.068 213.495 147.593C213.495 145.119 171.403 143.113 119.479 143.113C67.5554 143.113 25.4629 145.119 25.4629 147.593C25.4629 150.068 67.5554 152.073 119.479 152.073Z" fill="#E9ECF2"/>
<path d="M57.4303 132.464C41.1151 127.406 19.0303 102.103 28.005 77.4343C33.1108 63.3999 49.1423 62.3543 61.7439 60.0228C79.2551 56.7828 87.1372 46.4791 98.7356 33.7972C111.695 19.6273 141.129 3.07401 167.164 25.1295C174.175 31.0689 175.291 42.5548 184.338 50.618C193.436 58.7268 205.299 58.7633 210.639 74.8177C214.799 87.326 196.889 113.35 184.754 121.107C162.308 135.451 94.221 143.87 57.4303 132.464Z" fill="#FDF3F3"/>
<path d="M220.753 80.7617C220.751 80.8545 220.749 80.9452 220.747 81.038C220.486 92.3804 218.862 101.147 216.535 107.923L210.51 111.246L215.348 110.755L215.486 110.741C212.487 118.164 208.631 122.86 205.066 125.823C202.848 127.672 200.741 128.848 199.024 129.591C198.911 129.64 198.8 129.688 198.689 129.733C198.413 129.849 198.145 129.951 197.892 130.044H194.673C194.636 129.892 194.603 129.742 194.571 129.591C194.548 129.495 194.528 129.4 194.51 129.305C194.48 129.181 194.455 129.054 194.431 128.929C191.402 114.112 196.793 102.701 203.474 94.7161C203.492 94.6889 203.515 94.6641 203.539 94.6369C205.864 91.8665 208.344 89.5081 210.675 87.5668L211.905 91.2548L212.374 86.2031C216.422 83.0609 219.746 81.2783 220.561 80.8591C220.688 80.7932 220.753 80.7617 220.753 80.7617Z" fill="#F3AEAE"/>
<path d="M220.863 80.8192L220.745 81.0368L213.431 94.4952L213.299 94.7331L211.306 98.4027L211.238 98.5251L204.879 110.223L204.87 110.239L194.508 129.304L194.352 129.59L194.105 130.042H193.824L194.069 129.59L194.429 128.928L204.655 110.114L204.845 109.766L220.56 80.8579L220.646 80.6992L220.863 80.8192Z" fill="white"/>
<path d="M219.66 93.271L211.191 98.4648L211.304 98.649L219.773 93.4551L219.66 93.271Z" fill="white"/>
<path d="M219.855 90.546L213.217 94.6172L213.33 94.8013L219.968 90.7302L219.855 90.546Z" fill="white"/>
<path d="M203.692 94.6202L203.477 94.6367L204.676 110.252L204.892 110.235L203.692 94.6202Z" fill="white"/>
<path d="M193.25 132.484C193.25 132.484 200.671 136.478 211.834 130.59L208.411 128.74L214.128 129.27C218.508 126.536 223.381 122.273 228.55 115.746L227.244 115.041L228.977 115.201C229.849 114.085 230.73 112.902 231.618 111.652C231.618 111.652 228.454 111.203 223.882 111.491L221.384 114.528L222.199 111.629C212.832 112.552 199.05 116.713 193.25 132.484Z" fill="#FBE5E5"/>
<path d="M231.554 111.534L192.646 131.625L192.758 131.842L231.666 111.751L231.554 111.534Z" fill="white"/>
<path d="M221.504 116.862L221.469 117.086L226.845 117.926L226.879 117.702L221.504 116.862Z" fill="white"/>
<path d="M218.838 118.178L218.787 118.398L225.032 119.851L225.083 119.631L218.838 118.178Z" fill="white"/>
<path d="M202.872 119.069L202.693 118.846C206.01 116.196 209.982 114.201 214.502 112.918L214.58 113.193C210.098 114.466 206.158 116.443 202.872 119.069Z" fill="#17181D"/>
<path d="M200.828 47.1811V144.848C200.828 146.211 199.725 147.318 198.358 147.318H150.351C148.987 147.318 147.881 146.211 147.881 144.848V47.1811C147.881 45.8144 148.987 44.7109 150.351 44.7109H198.358C199.725 44.7109 200.828 45.8144 200.828 47.1811Z" fill="#17181D"/>
<path d="M198.541 47.1811V144.848C198.541 146.211 197.438 147.318 196.071 147.318H148.064C146.7 147.318 145.594 146.211 145.594 144.848V47.1811C145.594 45.8144 146.7 44.7109 148.064 44.7109H196.071C197.437 44.7109 198.541 45.8144 198.541 47.1811Z" fill="white"/>
<path d="M194.905 57.3075V134.72C194.905 136.296 193.709 137.574 192.234 137.574H151.902C150.426 137.574 149.23 136.296 149.23 134.72V57.3075C149.23 55.731 150.426 54.4531 151.902 54.4531H192.234C193.709 54.4531 194.905 55.731 194.905 57.3075Z" fill="#FDF3F3"/>
<path d="M178.738 49.4177H165.396C165.265 49.4177 165.158 49.311 165.158 49.1795C165.158 49.0481 165.265 48.9414 165.396 48.9414H178.738C178.869 48.9414 178.976 49.0481 178.976 49.1795C178.976 49.311 178.869 49.4177 178.738 49.4177Z" fill="#2E4882"/>
<path d="M183.89 111.866H160.246C158.784 111.866 157.588 110.67 157.588 109.208V108.19C157.588 106.728 158.784 105.531 160.246 105.531H183.89C185.352 105.531 186.548 106.728 186.548 108.19V109.208C186.548 110.67 185.352 111.866 183.89 111.866Z" fill="#C93939"/>
<path d="M192.749 138.147H151.386C149.56 138.147 148.074 136.61 148.074 134.721V57.3089C148.074 55.4196 149.56 53.8828 151.386 53.8828H192.749C194.575 53.8828 196.061 55.4199 196.061 57.3089V134.721C196.061 136.611 194.575 138.147 192.749 138.147ZM151.386 55.0263C150.19 55.0263 149.218 56.0503 149.218 57.3089V134.721C149.218 135.98 150.19 137.004 151.386 137.004H192.749C193.945 137.004 194.917 135.98 194.917 134.721V57.3089C194.917 56.0503 193.945 55.0263 192.749 55.0263H151.386Z" fill="white"/>
<path d="M152.972 95.4981H191.198C191.985 95.4981 192.628 94.8544 192.628 94.0674V69.4658C192.628 68.6789 191.985 68.0352 191.198 68.0352H152.972C152.185 68.0352 151.541 68.6789 151.541 69.4658V94.0674C151.541 94.8544 152.185 95.4981 152.972 95.4981Z" fill="#17181D"/>
<path d="M161.88 86.9179H154.999C154.786 86.9179 154.611 86.7435 154.611 86.5304V85.2078C154.611 84.9947 154.786 84.8203 154.999 84.8203H161.88C162.093 84.8203 162.268 84.9947 162.268 85.2078V86.5304C162.268 86.7435 162.093 86.9179 161.88 86.9179Z" fill="white"/>
<path d="M170.976 86.9179H164.094C163.881 86.9179 163.707 86.7435 163.707 86.5304V85.2078C163.707 84.9947 163.881 84.8203 164.094 84.8203H170.976C171.189 84.8203 171.364 84.9947 171.364 85.2078V86.5304C171.364 86.7435 171.189 86.9179 170.976 86.9179Z" fill="white"/>
<path d="M180.072 86.9179H173.19C172.977 86.9179 172.803 86.7435 172.803 86.5304V85.2078C172.803 84.9947 172.977 84.8203 173.19 84.8203H180.072C180.285 84.8203 180.459 84.9947 180.459 85.2078V86.5304C180.46 86.7435 180.285 86.9179 180.072 86.9179Z" fill="white"/>
<path d="M189.169 86.9179H182.288C182.075 86.9179 181.9 86.7435 181.9 86.5304V85.2078C181.9 84.9947 182.075 84.8203 182.288 84.8203H189.169C189.383 84.8203 189.557 84.9947 189.557 85.2078V86.5304C189.557 86.7435 189.383 86.9179 189.169 86.9179Z" fill="white"/>
<path d="M189.085 91.0231H180.032C179.773 91.0231 179.561 90.8108 179.561 90.5516V89.3972C179.561 89.1378 179.773 88.9258 180.032 88.9258H189.085C189.345 88.9258 189.557 89.138 189.557 89.3972V90.5516C189.557 90.8111 189.345 91.0231 189.085 91.0231Z" fill="white"/>
<path d="M156.359 76.1396V73.385C156.359 72.7828 156.849 72.293 157.451 72.293H162.803C163.405 72.293 163.895 72.7828 163.895 73.385V76.1396C163.895 76.7418 163.405 77.2316 162.803 77.2316H157.451C156.849 77.2314 156.359 76.7415 156.359 76.1396ZM157.451 72.586C157.011 72.586 156.652 72.9444 156.652 73.385V76.1396C156.652 76.5802 157.011 76.9386 157.451 76.9386H162.803C163.243 76.9386 163.602 76.5802 163.602 76.1396V73.385C163.602 72.9444 163.243 72.586 162.803 72.586H157.451Z" fill="white"/>
<path d="M188.287 74.3807C188.287 74.3468 188.3 74.3127 188.326 74.2868C189.53 73.0834 189.53 71.1252 188.326 69.922C188.274 69.8703 188.274 69.7863 188.326 69.7343C188.378 69.6823 188.462 69.6823 188.514 69.7343C189.821 71.0412 189.821 73.1676 188.514 74.4746C188.462 74.5263 188.378 74.5263 188.326 74.4746C188.3 74.4487 188.287 74.4146 188.287 74.3807Z" fill="white"/>
<path d="M187.623 70.5858C187.623 70.5519 187.636 70.5178 187.662 70.4919C187.714 70.4402 187.798 70.4402 187.85 70.4919C188.738 71.3805 188.738 72.8261 187.85 73.7143C187.798 73.7661 187.714 73.7661 187.662 73.7143C187.61 73.6626 187.61 73.5786 187.662 73.5266C188.447 72.7415 188.447 71.4642 187.662 70.6794C187.636 70.6538 187.623 70.6199 187.623 70.5858Z" fill="white"/>
<path d="M186.986 72.9192C186.986 72.8854 186.999 72.8512 187.025 72.8254C187.422 72.4288 187.422 71.7835 187.025 71.3867C186.974 71.335 186.974 71.251 187.025 71.199C187.077 71.1472 187.161 71.1472 187.213 71.199C187.713 71.699 187.713 72.5128 187.213 73.0131C187.161 73.0648 187.077 73.0648 187.025 73.0131C186.999 72.9872 186.986 72.9534 186.986 72.9192Z" fill="white"/>
<path d="M198.755 125.523H198.326V47.1806C198.326 45.9369 197.315 44.9249 196.071 44.9249H148.063C146.819 44.9249 145.808 45.9369 145.808 47.1806V114.282H145.379V47.1806C145.379 45.7004 146.583 44.4961 148.063 44.4961H196.071C197.551 44.4961 198.755 45.7004 198.755 47.1806V125.523Z" fill="#2E4882"/>
<path d="M153.584 147.53H148.063C146.583 147.53 145.379 146.326 145.379 144.845V133.551H145.808V144.845C145.808 146.089 146.819 147.101 148.063 147.101H153.584V147.53H153.584Z" fill="#2E4882"/>
<path d="M175.489 147.102H170.379V147.53H175.489V147.102Z" fill="#2E4882"/>
<path d="M201.917 146.887C201.917 147.625 196.499 148.225 189.818 148.225C183.136 148.225 177.719 147.625 177.719 146.887C177.719 146.873 177.722 146.862 177.724 146.847V143.23H201.908V146.838C201.914 146.856 201.917 146.87 201.917 146.887Z" fill="#F49B51"/>
<path d="M189.817 144.602C196.499 144.602 201.916 144.003 201.916 143.264C201.916 142.525 196.499 141.926 189.817 141.926C183.135 141.926 177.719 142.525 177.719 143.264C177.719 144.003 183.135 144.602 189.817 144.602Z" fill="#FCC659"/>
<path d="M204.776 142.524C204.776 143.261 199.358 143.862 192.677 143.862C185.996 143.862 180.578 143.261 180.578 142.524C180.578 142.509 180.581 142.498 180.584 142.484V138.867H204.767V142.475C204.773 142.492 204.776 142.507 204.776 142.524Z" fill="#F49B51"/>
<path d="M192.677 140.238C199.358 140.238 204.775 139.639 204.775 138.9C204.775 138.161 199.358 137.562 192.677 137.562C185.995 137.562 180.578 138.161 180.578 138.9C180.578 139.639 185.995 140.238 192.677 140.238Z" fill="#FCC659"/>
<path d="M201.917 138.16C201.917 138.898 196.499 139.498 189.818 139.498C183.136 139.498 177.719 138.898 177.719 138.16C177.719 138.146 177.722 138.135 177.724 138.12V134.504H201.908V138.112C201.914 138.129 201.917 138.143 201.917 138.16Z" fill="#F49B51"/>
<path d="M189.817 135.875C196.499 135.875 201.916 135.276 201.916 134.537C201.916 133.798 196.499 133.199 189.817 133.199C183.135 133.199 177.719 133.798 177.719 134.537C177.719 135.276 183.135 135.875 189.817 135.875Z" fill="#FCC659"/>
<path d="M189.82 148.368C184.899 148.368 177.578 147.973 177.578 146.887H177.864C177.864 147.304 181.97 148.082 189.82 148.082C190.106 148.082 190.389 148.081 190.669 148.078L190.671 148.364C190.39 148.367 190.106 148.368 189.82 148.368Z" fill="#2E4882"/>
<path d="M194.617 148.258L194.604 147.973C195.829 147.914 196.952 147.834 197.942 147.734L197.971 148.019C196.975 148.119 195.847 148.199 194.617 148.258Z" fill="#2E4882"/>
<path d="M185.045 143.683C180.498 143.269 180.498 142.696 180.498 142.508H180.784C180.784 142.647 181.554 143.078 185.07 143.398L185.045 143.683Z" fill="#2E4882"/>
<path d="M192.74 143.988C191.38 143.988 190.044 143.964 188.77 143.915L188.781 143.629C191.057 143.717 193.573 143.727 195.918 143.656L195.926 143.941C194.888 143.973 193.816 143.988 192.74 143.988Z" fill="#2E4882"/>
<path d="M198.929 143.799L198.91 143.514C200.2 143.429 201.326 143.319 202.255 143.188L202.295 143.471C201.359 143.603 200.226 143.713 198.929 143.799Z" fill="#2E4882"/>
<path d="M181.685 135.677C177.652 135.265 177.652 134.746 177.652 134.551H177.938C177.938 134.555 178.041 135.018 181.714 135.393L181.685 135.677Z" fill="#2E4882"/>
<path d="M189.894 136.033C188.504 136.033 187.143 136.007 185.852 135.956L185.863 135.67C187.151 135.721 188.507 135.747 189.894 135.747C192.377 135.747 194.762 135.664 196.79 135.508L196.812 135.793C194.777 135.95 192.385 136.033 189.894 136.033Z" fill="#2E4882"/>
<path d="M206.206 133.797C206.206 134.535 200.788 135.135 194.107 135.135C187.425 135.135 182.008 134.535 182.008 133.797C182.008 133.783 182.011 133.772 182.013 133.757V130.141H206.197V133.749C206.203 133.766 206.206 133.78 206.206 133.797Z" fill="#F49B51"/>
<path d="M194.106 131.512C200.788 131.512 206.205 130.913 206.205 130.174C206.205 129.435 200.788 128.836 194.106 128.836C187.424 128.836 182.008 129.435 182.008 130.174C182.008 130.913 187.424 131.512 194.106 131.512Z" fill="#FCC659"/>
<path d="M203.961 130.173C203.961 130.67 199.549 131.073 194.107 131.073C188.664 131.073 184.252 130.67 184.252 130.173C184.252 129.676 188.664 129.273 194.107 129.273C199.549 129.273 203.961 129.676 203.961 130.173Z" fill="#F49B51"/>
<path d="M162.715 123.731C155.969 123.547 150.351 128.868 150.167 135.617C149.982 142.363 155.303 147.983 162.052 148.165C168.798 148.349 174.418 143.028 174.6 136.279C174.784 129.533 169.464 123.915 162.715 123.731ZM172.217 136.215C172.145 138.841 171.055 141.283 169.146 143.089C167.239 144.896 164.744 145.853 162.116 145.782C156.695 145.633 152.403 141.103 152.552 135.68C152.623 133.054 153.711 130.613 155.62 128.806C157.46 127.063 159.851 126.111 162.377 126.111C162.469 126.111 162.558 126.114 162.65 126.116C167.984 126.26 172.22 130.646 172.22 135.946C172.22 136.036 172.22 136.126 172.217 136.215Z" fill="#FCC659"/>
<path d="M172.219 135.945C172.219 136.034 172.219 136.124 172.217 136.214C172.145 138.84 171.055 141.281 169.146 143.088C167.239 144.895 164.743 145.852 162.115 145.781C156.694 145.632 152.402 141.102 152.551 135.679C152.622 133.053 153.71 130.611 155.619 128.804C157.46 127.061 159.85 126.109 162.376 126.109C162.468 126.109 162.558 126.112 162.65 126.114C167.984 126.258 172.219 130.644 172.219 135.945Z" fill="#F49B51"/>
<path d="M161.761 143.471V141.62C160.698 141.602 159.598 141.272 158.957 140.814L159.397 139.586C160.057 140.026 161.009 140.374 162.036 140.374C163.337 140.374 164.217 139.623 164.217 138.579C164.217 137.571 163.502 136.947 162.146 136.398C160.276 135.664 159.122 134.822 159.122 133.227C159.122 131.706 160.203 130.552 161.889 130.277V128.426H163.025V130.203C164.125 130.24 164.876 130.533 165.408 130.845L164.949 132.054C164.565 131.834 163.813 131.431 162.64 131.431C161.229 131.431 160.698 132.274 160.698 133.007C160.698 133.96 161.376 134.436 162.97 135.096C164.858 135.866 165.811 136.819 165.811 138.45C165.811 139.898 164.803 141.254 162.915 141.565V143.471H161.761Z" fill="#FCC659"/>
<path d="M171.816 133.485C171.795 133.405 171.772 133.325 171.75 133.246C170.969 130.549 169.068 128.329 166.529 127.14L166.642 126.898C169.251 128.12 171.204 130.401 172.001 133.156C172.029 133.254 172.053 133.336 172.074 133.418L171.816 133.485Z" fill="#2E4882"/>
<path d="M166.53 127.142C164.488 126.185 162.163 125.971 159.983 126.538L159.916 126.281C162.156 125.697 164.545 125.918 166.643 126.9L166.53 127.142Z" fill="#2E4882"/>
<path d="M171.019 140.977L170.789 140.842C171.443 139.729 171.864 138.526 172.039 137.266L172.303 137.303C172.123 138.598 171.691 139.834 171.019 140.977Z" fill="#2E4882"/>
<path d="M170.338 126.857C169.394 126.03 168.333 125.358 167.186 124.86L167.299 124.598C168.474 125.108 169.56 125.796 170.527 126.642L170.338 126.857Z" fill="#2E4882"/>
<path d="M169.281 146.211L169.121 145.973C172.356 143.795 174.351 140.17 174.457 136.276C174.522 133.857 173.873 131.503 172.578 129.47L172.819 129.316C174.145 131.398 174.81 133.807 174.743 136.284C174.634 140.27 172.592 143.981 169.281 146.211Z" fill="#2E4882"/>
<path d="M192.772 74.7553H192.486V69.3119C192.486 68.6017 191.909 68.0241 191.198 68.0241H166.852V67.7383H191.198C192.066 67.7383 192.772 68.4441 192.772 69.3119V74.7553Z" fill="#2E4882"/>
<path d="M192.772 77.6133H192.486V80.7615H192.772V77.6133Z" fill="#2E4882"/>
<path d="M163.706 67.7383H158.742V68.0241H163.706V67.7383Z" fill="#2E4882"/>
<path d="M74.9696 38.2794C76.9475 36.6748 78.7683 34.7412 79.6245 32.3428C80.4808 29.9442 80.1864 27.009 78.3819 25.2116C76.9104 23.7463 74.676 23.2516 72.6125 23.4847C70.5491 23.7178 68.6163 24.5932 66.7744 25.5522C63.2507 27.3871 42.7549 40.0946 49.88 44.2796C56.7392 48.3087 69.6696 42.5794 74.9696 38.2794Z" fill="#FDF3F3"/>
<path d="M27.8408 72.1731L27.5957 72.0259C30.4866 67.2041 35.1434 63.9323 42.2506 61.7305L42.3352 62.0035C35.2992 64.1835 30.6936 67.415 27.8408 72.1731Z" fill="#2E4882"/>
<path d="M24.1377 74.0497L23.8691 73.9521C27.6006 63.6956 37.1787 60.4049 46.0558 58.5391L46.1147 58.8188C37.3142 60.6687 27.8211 63.9249 24.1377 74.0497Z" fill="#2E4882"/>
<path d="M153.362 14.3114C146.803 10.9583 141.25 10.0554 135.885 11.4687L135.812 11.1924C141.249 9.75965 146.867 10.6698 153.492 14.0567L153.362 14.3114Z" fill="#2E4882"/>
<path d="M158.291 14.6726C150.701 9.85124 141.632 5.55231 131.925 10.2278L131.801 9.97017C141.634 5.23471 150.787 9.56777 158.445 14.4315L158.291 14.6726Z" fill="#2E4882"/>
<path d="M122.528 27.6882C115.781 27.504 110.164 32.8248 109.979 39.5736C109.795 46.3197 115.116 51.94 121.865 52.1216C128.611 52.3058 134.231 46.985 134.413 40.2362C134.597 33.4901 129.276 27.8725 122.528 27.6882ZM132.03 40.1725C131.958 42.7984 130.868 45.24 128.959 47.0466C127.052 48.8536 124.557 49.8106 121.929 49.7389C116.508 49.5904 112.216 45.0605 112.365 39.6376C112.436 37.0117 113.524 34.5701 115.433 32.7634C117.273 31.0205 119.664 30.0685 122.19 30.0685C122.282 30.0685 122.371 30.0712 122.464 30.0736C127.797 30.2168 132.033 34.6034 132.033 39.9037C132.033 39.9933 132.033 40.0829 132.03 40.1725Z" fill="#FCC659"/>
<path d="M132.034 39.9019C132.034 39.9915 132.034 40.0811 132.031 40.1707C131.959 42.7965 130.869 45.2381 128.96 47.0451C127.053 48.852 124.558 49.8091 121.929 49.7376C116.509 49.5891 112.217 45.0592 112.365 39.6357C112.437 37.0099 113.525 34.5683 115.434 32.7613C117.274 31.0184 119.664 30.0664 122.19 30.0664C122.283 30.0664 122.372 30.0691 122.464 30.0715C127.798 30.2147 132.034 34.6016 132.034 39.9019Z" fill="#F49B51"/>
<path d="M121.573 47.4281V45.5772C120.51 45.5591 119.411 45.2289 118.77 44.7711L119.21 43.5433C119.869 43.9831 120.822 44.3313 121.848 44.3313C123.15 44.3313 124.029 43.5799 124.029 42.5356C124.029 41.5276 123.315 40.9044 121.959 40.3548C120.089 39.6217 118.935 38.7785 118.935 37.1841C118.935 35.6633 120.016 34.5087 121.702 34.2337V32.3828H122.838V34.1604C123.938 34.1969 124.689 34.4903 125.22 34.8017L124.762 36.0111C124.377 35.7913 123.626 35.3881 122.453 35.3881C121.042 35.3881 120.51 36.2311 120.51 36.9641C120.51 37.9172 121.188 38.3935 122.783 39.0532C124.67 39.8231 125.623 40.7759 125.623 42.4068C125.623 43.8545 124.615 45.2108 122.728 45.5223V47.4281H121.573Z" fill="#FCC659"/>
<path d="M131.646 37.4617C131.624 37.3774 131.6 37.2937 131.576 37.2099C130.799 34.5254 128.898 32.3057 126.359 31.1163L126.472 30.875C129.081 32.0966 131.034 34.3774 131.831 37.1321C131.857 37.2219 131.882 37.3078 131.904 37.3945L131.646 37.4617Z" fill="#2E4882"/>
<path d="M126.36 31.1179C124.318 30.1616 121.993 29.9475 119.813 30.5152L119.746 30.2571C121.986 29.6739 124.375 29.8939 126.473 30.8765L126.36 31.1179Z" fill="#2E4882"/>
<path d="M112.606 42.4131C111.936 39.8339 112.31 37.1499 113.658 34.8555L113.888 34.9907C112.576 37.2235 112.212 39.8357 112.864 42.3459L112.606 42.4131Z" fill="#2E4882"/>
<path d="M130.151 31.0371C129.206 30.2093 128.145 29.5373 126.998 29.0395L127.112 28.7773C128.286 29.2867 129.372 29.9747 130.339 30.8221L130.151 31.0371Z" fill="#2E4882"/>
<path d="M129.095 50.3905L128.936 50.1534C132.171 47.975 134.165 44.35 134.271 40.4561C134.337 38.0364 133.687 35.6828 132.393 33.6497L132.634 33.4961C133.959 35.5777 134.624 37.987 134.557 40.4638C134.449 44.45 132.407 48.1609 129.095 50.3905Z" fill="#2E4882"/>
<path d="M120.5 66.2342L121.582 61.5942L126.003 59.7539L126.79 66.2342C126.79 66.2342 126.134 70.444 122.068 71.9523C118.001 73.4608 120.5 66.2342 120.5 66.2342Z" fill="#FCB47E"/>
<path d="M118.76 54.033C118.76 54.033 117.186 62.7554 119.744 62.821C122.302 62.8866 124.4 61.9029 124.925 61.3127C125.45 60.7226 125.843 57.8367 125.843 57.8367C125.843 57.8367 126.171 54.0986 124.597 53.377C123.023 52.6557 119.613 51.4098 118.76 54.033Z" fill="#FCB47E"/>
<path d="M127.176 59.5832C126.673 60.5112 126.177 61.4198 126.177 61.4198C125.43 61.3024 124.603 60.3683 124.457 59.5638C124.457 59.5638 122.106 59.344 122.023 56.4344C122.023 56.4344 117.94 56.4616 117.844 52.9179C117.744 49.3771 121.827 50.2888 123.18 51.3702C124.531 52.4515 125.352 53.0027 127.457 53.6811C129.671 54.3963 127.821 58.3928 127.176 59.5832Z" fill="#374263"/>
<path d="M125.266 143.835L124.763 138.68H119.314L120.498 143.685C120.498 143.685 121.129 145.364 122.961 145.302C124.722 145.242 125.266 143.835 125.266 143.835Z" fill="#FCB47E"/>
<path d="M152.095 127.708L147.91 124.656L144.287 128.726L149.649 131.445C149.649 131.445 150.314 131.576 151.658 130.406C152.986 129.248 152.095 127.708 152.095 127.708Z" fill="#FCB47E"/>
<path d="M129.852 140.286C126.698 141.478 122.667 141.152 118.324 140.286C118.199 139.983 118.073 139.68 117.953 139.374C109.676 118.455 115.537 88.0703 115.537 88.0703H128.554L128.259 98.1138C127.688 100.767 127.296 103.454 127.044 106.119C125.392 123.638 129.852 140.286 129.852 140.286Z" fill="#3F5A9F"/>
<path d="M129.848 140.278C129.645 139.87 122.232 124.806 124.439 107.812L126.789 109.705C125.995 125.615 129.743 139.878 129.848 140.278Z" fill="#385087"/>
<path d="M150.885 122.26C149.69 125.614 148.418 128.218 147.034 129.739C146.391 130.445 145.725 130.92 145.03 131.126C143.034 130.102 141.208 128.993 139.538 127.815C139.309 127.658 139.086 127.498 138.863 127.335C138.566 127.118 138.274 126.898 137.991 126.677C137.86 126.577 137.731 126.477 137.605 126.374C137.348 126.174 137.097 125.968 136.851 125.765C136.63 125.582 136.413 125.396 136.202 125.214C135.078 124.242 134.043 123.241 133.088 122.215C132.997 122.117 132.905 122.017 132.817 121.92C132.751 121.849 132.685 121.774 132.62 121.703L132.617 121.7C119.488 107.108 121.898 88.0703 121.898 88.0703H133.317C134.294 106.324 150.885 122.26 150.885 122.26Z" fill="#3F5A9F"/>
<path d="M135.879 48.549C134.904 47.838 134.225 47.4455 134.061 47.3279C133.854 47.1794 133.804 46.81 133.562 46.4383C133.004 45.5834 131.845 44.0716 130.646 43.6514C130.492 43.5967 130.374 43.7596 130.539 43.9359C130.832 44.2596 131.387 44.7231 131.301 44.8007C131.117 44.9554 129.819 43.394 129.453 43.7562C129.178 44.0303 131.058 45.4228 130.984 45.5106C130.837 45.686 129.423 44.0906 129.078 44.4511C128.751 44.7935 130.45 45.6882 130.376 45.8386C130.3 45.994 129.123 45.0188 128.891 45.2404C128.539 45.5762 130.66 46.8916 130.604 47.0863C130.528 47.4023 129.431 46.7434 129.268 47.1151C129.108 47.4639 130.644 48.1239 130.935 48.2698C131.606 48.6066 132.095 48.4604 132.631 49.2967C132.926 49.7562 133.219 50.2135 133.506 50.6743L135.879 48.549Z" fill="#FCB47E"/>
<path d="M108.984 49.5906C109.877 48.7796 110.511 48.3167 110.661 48.182C110.852 48.0122 110.861 47.6396 111.062 47.2442C111.525 46.3346 112.517 44.7074 113.664 44.1615C113.811 44.0906 113.947 44.2399 113.8 44.433C113.544 44.786 113.042 45.3063 113.135 45.3743C113.335 45.5084 114.458 43.8172 114.861 44.1383C115.164 44.3815 113.444 45.9668 113.527 46.0463C113.691 46.205 114.927 44.4676 115.308 44.7892C115.67 45.0946 114.077 46.1658 114.166 46.3074C114.259 46.4538 115.325 45.3583 115.579 45.554C115.964 45.8503 113.996 47.385 114.073 47.5724C114.183 47.8786 115.202 47.1063 115.404 47.4586C115.601 47.7882 114.144 48.6087 113.87 48.7847C113.239 49.1914 112.738 49.0983 112.293 49.9871C112.049 50.4756 111.807 50.9612 111.571 51.4503L108.984 49.5906Z" fill="#FCB47E"/>
<path d="M133.435 89.5575C132.418 90.2065 130.634 91.2556 128.435 92.1649C126.465 92.9769 124.161 93.6801 121.774 93.8889C119.455 94.0918 117.057 93.826 114.807 92.7425C114.95 91.6761 115.087 90.77 115.201 90.0465C117.265 91.1385 119.504 91.5988 121.725 91.6617C124.069 91.7303 126.394 91.3559 128.475 90.8127C130.376 90.318 132.074 89.6833 133.392 89.1172C133.404 89.2631 133.418 89.4116 133.435 89.5575Z" fill="#385087"/>
<path d="M112.663 88.1768V73.8122C112.663 73.8122 99.7545 71.6213 102.289 59.1216C103.899 51.1794 109.57 48.344 109.57 48.344L112.715 50.8701C112.715 50.8701 106.031 61.0869 114.829 64.6354C114.829 64.6354 119.778 64.4808 121.067 65.8728C121.067 65.8728 123.902 68.1413 126.892 64.3776C126.892 64.3776 129.934 63.1917 132.527 63.8885C134.661 64.4618 137.41 59.1704 132.306 50.1997L135.502 47.3125C135.502 47.3125 154.217 65.3053 135.863 74.2242L134.838 88.576C134.838 88.576 120.632 96.6325 112.663 88.1768Z" fill="#DD5454"/>
<path d="M123.889 60.0831C124.452 60.0831 124.907 59.6273 124.907 59.065C124.907 58.5027 124.452 58.0469 123.889 58.0469C123.327 58.0469 122.871 58.5027 122.871 59.065C122.871 59.6273 123.327 60.0831 123.889 60.0831Z" fill="#FCB47E"/>
<path d="M126.667 113.263C124.269 108.606 122.698 103.427 122 97.8684L122.225 97.8398C122.92 103.372 124.483 108.525 126.869 113.159L126.667 113.263Z" fill="white"/>
<path d="M132.804 96.8178C129.191 96.8178 128.035 93.6786 128.023 93.6463L128.238 93.5703C128.249 93.6018 129.38 96.6831 132.974 96.5882L132.98 96.8154C132.921 96.8167 132.862 96.8178 132.804 96.8178Z" fill="white"/>
<path d="M122.87 67.7418C122.802 67.7418 122.735 67.7386 122.668 67.7325C121.044 67.5826 120.224 65.6861 120.189 65.6053L120.399 65.5168C120.406 65.5354 121.201 67.3698 122.689 67.5064C123.94 67.6221 125.321 66.5466 126.798 64.3125L126.988 64.4378C125.537 66.6317 124.153 67.7418 122.87 67.7418Z" fill="#2E4882"/>
<path d="M112.664 73.8115C112.664 73.8115 99.753 71.6187 102.289 59.1195C102.426 58.4363 102.595 57.7872 102.789 57.1781C102.821 57.1437 102.855 57.1096 102.887 57.0781C102.672 59.9 102.571 62.3712 103.822 65.0432C106.436 70.6315 112.842 73.7965 112.664 73.8115Z" fill="#C93939"/>
<path d="M135.862 74.2247L134.839 88.5764C134.839 88.5764 131.888 90.2519 127.92 91.2724C128.606 90.7521 131.493 86.3369 131.977 84.1057C132.845 80.1041 132.953 77.8001 133.064 73.5345C137.335 72.4252 142.204 68.6623 143.879 62.3828C144.259 66.6655 142.44 71.0255 135.862 74.2247Z" fill="#C93939"/>
<path d="M122.212 90.5333C122.172 90.5333 122.15 90.5331 122.146 90.5331L122.151 90.3059C122.212 90.3053 128.212 90.3899 133.406 87.2227L133.524 87.4168C128.567 90.4392 122.886 90.5333 122.212 90.5333Z" fill="#2E4882"/>
<path d="M147.034 129.739C146.39 130.446 145.724 130.92 145.03 131.126C143.034 130.103 141.207 128.993 139.538 127.815C139.309 127.658 139.086 127.498 138.863 127.335C138.566 127.118 138.274 126.898 137.991 126.678C137.859 126.578 137.731 126.478 137.605 126.375C137.348 126.174 137.096 125.969 136.85 125.766C136.63 125.583 136.413 125.397 136.201 125.214C135.078 124.242 134.043 123.241 133.088 122.215C132.996 122.118 132.905 122.018 132.816 121.92C132.751 121.849 132.685 121.775 132.619 121.703C140.427 128.155 145.421 129.474 147.034 129.739Z" fill="#385087"/>
<path d="M149.193 121.804C143.697 118.235 140.205 111.787 140.17 111.722L140.359 111.621C140.393 111.685 143.861 118.086 149.31 121.625L149.193 121.804Z" fill="white"/>
<path d="M125.956 147.937H113.598C113.167 147.937 112.823 147.573 112.856 147.144C112.856 147.139 112.856 147.133 112.857 147.128C112.865 147.033 112.877 146.936 112.891 146.839C112.934 146.51 113.023 146.181 113.177 145.976C113.763 145.198 114.901 144.844 116.928 144.04C118.2 143.534 119.281 142.862 119.755 142.548C119.91 142.445 120.11 142.471 120.244 142.599C122.689 144.989 124.19 144.48 124.638 143.494C124.981 142.742 125.467 142.9 125.602 143.12C126.014 143.809 126.239 145.827 126.331 146.839C126.342 146.948 126.351 147.048 126.356 147.128C126.371 147.317 126.379 147.431 126.379 147.431C126.425 147.694 126.222 147.937 125.956 147.937Z" fill="#374263"/>
<path d="M117.626 145.338C116.749 144.912 116.879 144.005 116.881 143.996L117.093 144.029C117.088 144.06 116.988 144.789 117.72 145.144L117.626 145.338Z" fill="white"/>
<path d="M116.542 145.702C115.735 145.246 115.821 144.459 115.825 144.426L116.038 144.451C116.034 144.479 115.968 145.131 116.647 145.515L116.542 145.702Z" fill="white"/>
<path d="M123.517 145.162C122.69 145.162 121.942 144.785 121.93 144.779L122.028 144.588C122.046 144.598 123.922 145.54 124.885 144.34L125.053 144.474C124.629 145.002 124.057 145.162 123.517 145.162Z" fill="white"/>
<path d="M124.849 146.973H117.646V147.187H124.849V146.973Z" fill="white"/>
<path d="M116.723 146.973H115.02V147.187H116.723V146.973Z" fill="white"/>
<path d="M155.78 128.451L149.741 139.234C149.531 139.61 149.045 139.732 148.686 139.494C148.682 139.491 148.679 139.489 148.675 139.486C148.595 139.432 148.518 139.375 148.438 139.315C148.175 139.115 147.929 138.878 147.826 138.643C147.434 137.751 147.68 136.588 147.969 134.423C148.149 133.065 148.089 131.799 148.049 131.227C148.035 131.044 148.155 130.881 148.332 130.827C151.611 129.86 151.9 128.305 151.259 127.43C150.771 126.764 151.145 126.415 151.402 126.407C152.206 126.384 154.075 127.17 155.002 127.588C155.105 127.63 155.196 127.67 155.271 127.705C155.442 127.785 155.545 127.833 155.545 127.833C155.8 127.922 155.908 128.217 155.78 128.451Z" fill="#374263"/>
<path d="M148.317 134.562C148.111 134.562 147.963 134.533 147.947 134.529L147.991 134.319C148 134.322 148.881 134.496 149.321 133.926L149.49 134.056C149.165 134.48 148.66 134.562 148.317 134.562Z" fill="white"/>
<path d="M148.219 135.73C148.013 135.73 147.865 135.701 147.85 135.697L147.894 135.487C147.902 135.489 148.783 135.664 149.223 135.094L149.393 135.224C149.066 135.648 148.562 135.73 148.219 135.73Z" fill="white"/>
<path d="M151.274 130.431L151.135 130.268C151.151 130.254 152.734 128.876 151.989 127.53L152.177 127.426C153.006 128.926 151.291 130.416 151.274 130.431Z" fill="white"/>
<path d="M154.244 129.183L150.793 135.504L150.981 135.607L154.432 129.285L154.244 129.183Z" fill="white"/>
<path d="M150.351 136.314L149.535 137.809L149.723 137.911L150.539 136.417L150.351 136.314Z" fill="white"/>
<path d="M114.79 64.7732C114.678 64.7415 112.04 63.9681 110.671 61.4476C109.725 59.7089 109.63 57.5788 110.388 55.1172L110.661 55.2012C109.927 57.5852 110.015 59.6399 110.92 61.3081C112.231 63.7225 114.842 64.4908 114.868 64.4983L114.79 64.7732Z" fill="#2E4882"/>
<path d="M121.48 56.5982C120.486 56.5982 118.921 56.1736 118.102 55.1518C117.595 54.5192 117.182 53.4024 118.093 51.6758L118.283 51.7758C117.595 53.0795 117.59 54.1702 118.269 55.0176C119.218 56.2019 121.221 56.5395 121.995 56.3283L122.051 56.5352C121.9 56.5766 121.705 56.5982 121.48 56.5982Z" fill="#374263"/>
<path d="M120.561 56.8071C119.875 56.8071 119.051 56.6183 118.154 56.0266L118.272 55.8477C120.615 57.3943 122.413 56.0605 122.431 56.0466L122.561 56.2173C122.548 56.2261 121.766 56.8071 120.561 56.8071Z" fill="#374263"/>
<path d="M17.6953 92.2188C17.6972 92.2993 17.6993 92.3779 17.7012 92.4585C17.9273 102.298 19.3364 109.904 21.3545 115.781L26.582 118.664L22.3844 118.238L22.2644 118.226C24.8662 124.666 28.211 128.74 31.3044 131.31C33.2284 132.914 35.0558 133.934 36.5454 134.578C36.6436 134.622 36.7401 134.663 36.8364 134.702C37.0761 134.802 37.3081 134.891 37.5281 134.972H40.3206C40.3521 134.84 40.3817 134.71 40.4092 134.578C40.4289 134.496 40.4465 134.413 40.4622 134.331C40.4878 134.223 40.5094 134.113 40.531 134.005C43.1585 121.15 38.4814 111.252 32.686 104.324C32.6702 104.301 32.6505 104.279 32.6289 104.256C30.6126 101.852 28.4606 99.8065 26.4385 98.1222L25.3713 101.321L24.9646 96.939C21.4529 94.2134 18.57 92.6667 17.8625 92.303C17.7521 92.2462 17.6953 92.2188 17.6953 92.2188Z" fill="#F3AEAE"/>
<path d="M17.5977 92.2681L17.7001 92.4569L24.0457 104.132L24.1595 104.338L25.8889 107.522L25.9481 107.628L31.4643 117.776L31.4721 117.79L40.4609 134.329L40.5966 134.577L40.8107 134.97H41.0545L40.8422 134.577L40.5297 134.003L31.6587 117.682L31.4937 117.38L17.8611 92.3017L17.7865 92.1641L17.5977 92.2681Z" fill="white"/>
<path d="M18.6293 103.067L18.5312 103.227L25.8776 107.732L25.9756 107.572L18.6293 103.067Z" fill="white"/>
<path d="M18.4593 100.703L18.3613 100.863L24.1197 104.395L24.2177 104.235L18.4593 100.703Z" fill="white"/>
<path d="M32.342 118.629L33.4017 105.156L33.1948 105.141L32.1348 118.613L32.342 118.629Z" fill="white"/>
<path d="M41.6556 137.655C41.6556 137.655 35.218 141.12 25.534 136.012L28.5036 134.407L23.5436 134.867C19.7442 132.495 15.5167 128.797 11.0324 123.134L12.1658 122.523L10.662 122.661C9.90549 121.693 9.14149 120.668 8.37109 119.582C8.37109 119.582 11.1159 119.193 15.082 119.443L17.249 122.077L16.542 119.563C24.6679 120.364 36.6244 123.973 41.6556 137.655Z" fill="#FBE5E5"/>
<path d="M8.41538 119.492L8.31836 119.68L42.0709 137.109L42.1679 136.921L8.41538 119.492Z" fill="white"/>
<path d="M17.148 124.103L12.4844 124.832L12.5147 125.026L17.1783 124.297L17.148 124.103Z" fill="white"/>
<path d="M19.4485 125.259L14.0312 126.52L14.0758 126.711L19.493 125.451L19.4485 125.259Z" fill="white"/>
<path d="M97.582 143.611H38.6588C37.2151 143.611 36.0449 142.44 36.0449 140.997V100.883C36.0449 99.4397 37.2153 98.2695 38.6588 98.2695H97.582C99.0257 98.2695 100.196 99.4399 100.196 100.883V140.997C100.196 142.44 99.0257 143.611 97.582 143.611Z" fill="#DD5454"/>
<path d="M98.2509 102.976V138.906C98.2509 140.427 97.0181 141.66 95.4971 141.66H91.3408V102.55H39.5856C38.9429 102.55 38.4219 102.029 38.4219 101.386C38.4219 100.743 38.9429 100.223 39.5856 100.223H95.4971C97.0179 100.222 98.2509 101.455 98.2509 102.976Z" fill="#152340"/>
<path d="M82.5289 98.8594C82.5857 98.9287 82.6422 98.998 82.6969 99.069C84.3036 101.147 85.0046 103.728 84.6702 106.335C84.3377 108.941 83.0116 111.261 80.9313 112.87C76.6406 116.186 70.4505 115.395 67.1329 111.102C65.5262 109.024 64.823 106.445 65.1577 103.838C65.4793 101.324 66.7273 99.0735 68.683 97.4748C68.7542 97.4164 68.8254 97.3618 68.8982 97.3055C73.1182 94.0404 79.174 94.7556 82.5289 98.8594Z" fill="#F49B51"/>
<path d="M74.2959 112.741V110.89C73.233 110.872 72.1335 110.541 71.4922 110.084L71.9322 108.856C72.5919 109.296 73.5447 109.644 74.5711 109.644C75.8725 109.644 76.7519 108.892 76.7519 107.848C76.7519 106.84 76.0372 106.217 74.6812 105.667C72.8119 104.934 71.6575 104.091 71.6575 102.497C71.6575 100.976 72.7388 99.8212 74.4247 99.5462V97.6953H75.5607V99.4729C76.6602 99.5095 77.4116 99.8028 77.9431 100.114L77.485 101.324C77.1002 101.104 76.349 100.701 75.1759 100.701C73.765 100.701 73.2333 101.544 73.2333 102.277C73.2333 103.23 73.9114 103.706 75.5058 104.366C77.3933 105.135 78.3463 106.088 78.3463 107.719C78.3463 109.167 77.3383 110.523 75.4509 110.835V112.741H74.2959Z" fill="#FCC659"/>
<path d="M78.0081 93.2649C71.4796 91.555 64.8015 95.4627 63.0911 101.994C61.3812 108.522 65.2884 115.203 71.8201 116.911C78.3487 118.621 85.0292 114.714 86.7372 108.182C88.4471 101.653 84.5393 94.975 78.0081 93.2649ZM84.4313 107.579C83.766 110.12 82.1503 112.251 79.8809 113.577C77.614 114.905 74.9668 115.271 72.4231 114.605C67.1775 113.231 64.0249 107.845 65.3999 102.597C66.0652 100.056 67.6785 97.9249 69.9479 96.5982C72.1353 95.3182 74.6793 94.9331 77.1396 95.5062C77.2292 95.527 77.3159 95.5499 77.4052 95.5734C82.5671 96.9227 85.6972 102.156 84.4951 107.318C84.4745 107.405 84.454 107.492 84.4313 107.579Z" fill="#FCC659"/>
<path d="M57.0038 83.7429C50.2577 83.5587 44.6401 88.8795 44.4558 95.6283C44.2716 102.374 49.5924 107.995 56.3412 108.176C63.0876 108.361 68.7076 103.04 68.8894 96.2909C69.0734 89.5448 63.7526 83.9272 57.0038 83.7429ZM66.5062 96.2269C66.4345 98.8528 65.3443 101.294 63.435 103.101C61.5283 104.908 59.0331 105.865 56.4046 105.793C50.9841 105.645 46.6921 101.115 46.8406 95.692C46.9124 93.0661 48.0001 90.6245 49.9091 88.8179C51.7491 87.0749 54.1396 86.1229 56.6657 86.1229C56.7577 86.1229 56.8473 86.1256 56.9395 86.128C62.2731 86.2712 66.5086 90.6579 66.5086 95.9581C66.5089 96.048 66.5089 96.1373 66.5062 96.2269Z" fill="#FCC659"/>
<path d="M64.2867 89.7303C64.3435 89.7996 64.4 89.8689 64.4547 89.9399C66.0614 92.0183 66.7624 94.5985 66.428 97.206C66.0955 99.8119 64.7694 102.132 62.6891 103.74C58.3984 107.056 52.2083 106.266 48.8907 101.973C47.284 99.8948 46.5808 97.3161 46.9155 94.7087C47.2371 92.1945 48.4851 89.9444 50.4408 88.3457C50.5123 88.2873 50.5832 88.2327 50.656 88.1764C54.876 84.9116 60.9318 85.6268 64.2867 89.7303Z" fill="#F49B51"/>
<path d="M56.0498 103.483V101.632C54.9869 101.614 53.8874 101.284 53.2461 100.826L53.6861 99.598C54.3458 100.038 55.2986 100.386 56.325 100.386C57.6264 100.386 58.5058 99.6346 58.5058 98.5903C58.5058 97.5823 57.7912 96.9591 56.4352 96.4095C54.5658 95.6762 53.4114 94.8332 53.4114 93.2388C53.4114 91.718 54.4928 90.5634 56.1786 90.2884V88.4375H57.3146V90.2151C58.4141 90.2516 59.1656 90.545 59.697 90.8564L59.2389 92.0658C58.8541 91.846 58.1029 91.4428 56.9298 91.4428C55.5186 91.4428 54.9872 92.2858 54.9872 93.0188C54.9872 93.9719 55.6653 94.4482 57.2597 95.1079C59.1472 95.8775 60.1002 96.8306 60.1002 98.4615C60.1002 99.9092 59.0922 101.266 57.2048 101.577V103.483H56.0498Z" fill="#FCC659"/>
<path d="M64.6274 86.9511C63.6831 86.1237 62.6223 85.4517 61.4746 84.9538L61.5882 84.6914C62.7631 85.201 63.849 85.8887 64.8159 86.7362L64.6274 86.9511Z" fill="#152340"/>
<path d="M63.5699 106.301L63.4102 106.064C66.6456 103.885 68.64 100.26 68.7456 96.3663C68.8115 93.9471 68.1616 91.5932 66.867 89.5599L67.1083 89.4062C68.4336 91.4878 69.0987 93.8974 69.0315 96.374C68.9238 100.36 66.8819 104.071 63.5699 106.301Z" fill="#152340"/>
<path d="M66.0132 93.4497C65.9916 93.3667 65.9679 93.2841 65.9442 93.2014C65.1668 90.5134 63.2658 88.2939 60.7266 87.1049L60.8396 86.8633C63.4484 88.0851 65.4018 90.3657 66.1986 93.1206C66.2252 93.2129 66.2495 93.2974 66.2716 93.383L66.0132 93.4497Z" fill="#152340"/>
<path d="M60.7252 87.1065C58.6833 86.1499 56.3588 85.9361 54.1785 86.5033L54.1113 86.2454C56.3513 85.6619 58.7401 85.8825 60.838 86.8646L60.7252 87.1065Z" fill="#152340"/>
<path d="M65.2162 100.941L64.9863 100.806C65.6402 99.6937 66.061 98.4905 66.2367 97.2305L66.5007 97.2675C66.3202 98.5625 65.8879 99.7985 65.2162 100.941Z" fill="#152340"/>
<path d="M93.4828 147.366H38.5791C37.1796 147.366 36.0449 146.231 36.0449 144.832V105.132C36.0449 103.732 37.1796 102.598 38.5791 102.598H93.4828C94.8823 102.598 96.0169 103.732 96.0169 105.132V144.832C96.0169 146.231 94.8825 147.366 93.4828 147.366Z" fill="#DD5454"/>
<path d="M58.9414 145.602H40.9033C39.5457 145.602 38.4414 144.497 38.4414 143.14V139.668H38.7273V143.14C38.7273 144.34 39.7035 145.316 40.9033 145.316H58.9414V145.602Z" fill="#152340"/>
<path d="M68.882 145.316H63.3223V145.602H68.882V145.316Z" fill="#152340"/>
<path d="M93.6187 111.603H93.3329V106.817C93.3329 105.617 92.3566 104.641 91.1569 104.641H67.6035V104.355H91.1569C92.5145 104.355 93.6187 105.46 93.6187 106.817V111.603Z" fill="#152340"/>
<path d="M63.3694 104.355H58.0566V104.641H63.3694V104.355Z" fill="#152340"/>
<path d="M38.7273 129.117H38.4414V135.874H38.7273V129.117Z" fill="#152340"/>
<path d="M100.122 115.789V128.44C100.122 130.029 98.8359 131.316 97.2463 131.316H86.3023C82.8031 131.316 79.9668 128.48 79.9668 124.98C79.9668 123.231 80.6759 121.647 81.8223 120.5C82.9687 119.354 84.5524 118.645 86.3023 118.645H97.2463C97.3263 118.645 97.4063 118.648 97.4865 118.656C98.9644 118.534 100.122 117.296 100.122 115.789Z" fill="#1D0C0C"/>
<path d="M87.8121 127.071C88.9666 125.916 88.9666 124.045 87.8121 122.89C86.6577 121.736 84.7859 121.736 83.6314 122.89C82.4769 124.045 82.4769 125.916 83.6314 127.071C84.7859 128.225 86.6577 128.225 87.8121 127.071Z" fill="white"/>
<path d="M85.7246 128.081V127.795C87.2761 127.795 88.5379 126.533 88.5379 124.982C88.5379 123.431 87.2758 122.169 85.7246 122.169V121.883C87.4337 121.883 88.8238 123.273 88.8238 124.982C88.8238 126.691 87.4334 128.081 85.7246 128.081Z" fill="#152340"/>
<path d="M82.9109 124.981H82.625C82.625 124.153 82.9474 123.374 83.5327 122.789L83.7349 122.991C83.2034 123.522 82.9109 124.229 82.9109 124.981Z" fill="#152340"/>
<path d="M34.8766 127.405C33.3432 125.954 31.5992 124.679 29.6934 123.617L29.8326 123.367C31.7592 124.442 33.5224 125.73 35.0731 127.198L34.8766 127.405Z" fill="#152340"/>
<path d="M26.57 122.117C25.5305 121.691 24.434 121.31 23.3105 120.986L23.39 120.711C24.5233 121.039 25.6295 121.423 26.6783 121.853L26.57 122.117Z" fill="#152340"/>
<path d="M97.6877 42.786C93.0538 41.5204 88.1101 41.3025 83.397 42.2895C81.0405 42.7703 78.7365 43.5172 76.561 44.5436C74.3864 45.5665 72.3117 46.8159 70.4352 48.322C68.5557 49.8212 66.8362 51.5265 65.3528 53.4215C63.8733 55.3188 62.6138 57.3873 61.6088 59.5732C61.3584 60.1196 61.1362 60.6791 60.9048 61.234C60.7064 61.8012 60.4834 62.3607 60.3069 62.9351C59.9434 64.0807 59.6261 65.2412 59.3978 66.4223C59.2845 67.0127 59.1786 67.6047 59.1002 68.2009C59.0797 68.35 59.057 68.4985 59.0413 68.6481L59.0226 68.8084L59.0112 68.9073C58.9968 69.0393 58.9786 69.1711 58.9674 69.3033L56.7402 69.078C57.6768 71.4516 58.8717 73.6055 60.2485 75.4929C61.197 73.3543 62.3792 71.4388 63.7205 69.7839L61.4933 69.5585C61.5034 69.4372 61.5205 69.3164 61.5336 69.1953L61.544 69.1047L61.561 68.9577C61.5754 68.8207 61.5962 68.6841 61.6152 68.5476C61.6866 68.0007 61.7845 67.4572 61.8882 66.9153C62.097 65.8313 62.3901 64.7649 62.7234 63.7127C62.885 63.1849 63.0912 62.6724 63.272 62.1511C63.4856 61.6428 63.6882 61.1289 63.9181 60.6279C64.8402 58.6239 65.9944 56.7284 67.3501 54.9884C68.7101 53.2513 70.2877 51.6879 72.0117 50.3119C73.7325 48.9292 75.6381 47.7841 77.6333 46.8447C79.6293 45.9017 81.7434 45.2177 83.9042 44.7767C88.2266 43.8705 92.7528 44.0721 97.0104 45.2324L97.6877 42.786Z" fill="#17181D"/>
<path d="M74.2297 45.7881L74.0918 45.5596C74.8339 45.1121 75.6046 44.6937 76.3827 44.3159C78.3257 43.3775 80.4371 42.6535 82.6585 42.1639C84.7171 41.7031 86.9411 41.4881 89.2638 41.5281C91.4299 41.5612 93.6409 41.8687 95.8355 42.4417L95.7681 42.6999C93.5942 42.1321 91.4043 41.8279 89.2595 41.7948C86.9563 41.7553 84.755 41.9679 82.7163 42.4241C80.5147 42.9095 78.4233 43.6265 76.499 44.5559C75.7286 44.9303 74.9649 45.3447 74.2297 45.7881Z" fill="#2E4882"/>
<path d="M68.5382 50.3157L68.3438 50.133C68.5867 49.8741 68.8461 49.6264 69.0973 49.3864C69.2419 49.2482 69.3864 49.1104 69.5283 48.9698C69.6541 48.8597 69.7733 48.7546 69.8925 48.6496C70.1829 48.3936 70.4832 48.1285 70.7893 47.8789L70.9579 48.0853C70.656 48.3317 70.3576 48.5949 70.0691 48.8493C69.9496 48.9546 69.8299 49.0602 69.7096 49.1648C69.5728 49.3005 69.4272 49.4397 69.2819 49.5789C69.0328 49.8168 68.776 50.0621 68.5382 50.3157Z" fill="#2E4882"/>
<path d="M60.2792 75.7585L60.1418 75.5731C58.9306 73.9382 57.8797 72.1326 57.0176 70.2065L57.261 70.0977C58.0826 71.9334 59.0776 73.6585 60.22 75.2286C60.844 73.8265 61.5832 72.4894 62.4184 71.2513L62.6394 71.4006C61.7714 72.6873 61.0082 74.0822 60.3714 75.5467L60.2792 75.7585Z" fill="#2E4882"/>
<path d="M59.1001 69.313L58.834 69.2952C58.8359 69.268 59.0252 66.5512 59.7932 64.1797L60.0468 64.2618C59.2892 66.601 59.102 69.2861 59.1001 69.313Z" fill="#2E4882"/>
<path d="M40.5365 123.17C34.0048 124.867 30.0867 131.539 31.7848 138.073C33.4822 144.605 40.155 148.526 46.6886 146.825C53.2203 145.128 57.1408 138.455 55.4403 131.921C53.7427 125.39 47.0707 121.471 40.5365 123.17ZM53.1336 132.522C53.7944 135.064 53.4254 137.713 52.0934 139.979C50.7638 142.244 48.6325 143.857 46.0878 144.518C40.8395 145.882 35.4579 142.723 34.0936 137.472C33.4328 134.93 33.7995 132.282 35.1315 130.016C36.4149 127.83 38.4467 126.251 40.8731 125.55C40.9616 125.524 41.0483 125.502 41.1376 125.478C46.3011 124.134 51.5886 127.171 53.0611 132.263C53.0862 132.349 53.1112 132.435 53.1336 132.522Z" fill="#FCC659"/>
<path d="M53.0623 132.263C53.0871 132.349 53.1121 132.435 53.1345 132.522C53.7953 135.064 53.4263 137.713 52.0943 139.979C50.7647 142.245 48.6335 143.857 46.0887 144.519C40.8401 145.882 35.4585 142.723 34.0943 137.472C33.4335 134.93 33.8001 132.282 35.1321 130.016C36.4156 127.83 38.4473 126.252 40.874 125.55C40.9625 125.524 41.0492 125.502 41.1385 125.478C46.3017 124.134 51.5895 127.171 53.0623 132.263Z" fill="#F49B51"/>
<path d="M52.1735 143.911L51.9887 143.719C55.1383 140.689 56.4116 136.182 55.3119 131.957C54.9271 130.476 54.2791 129.104 53.3858 127.878L53.6013 127.721C54.5146 128.973 55.177 130.376 55.5701 131.889C56.6941 136.208 55.3927 140.814 52.1735 143.911ZM50.5666 125.11C49.4125 124.3 48.1388 123.701 46.7812 123.332L46.8514 123.074C48.2388 123.452 49.5405 124.064 50.7197 124.892L50.5666 125.11Z" fill="#152340"/>
<path d="M45.1041 142.398L44.59 140.62C43.5639 140.898 42.4159 140.886 41.6727 140.624L41.754 139.323C42.5097 139.562 43.522 139.632 44.5079 139.347C45.758 138.985 46.394 138.019 46.1039 137.016C45.8239 136.047 44.9641 135.647 43.5087 135.496C41.5092 135.311 40.166 134.822 39.7231 133.291C39.3004 131.829 40.0183 130.42 41.5617 129.688L41.0473 127.909L42.1388 127.594L42.6327 129.301C43.6991 129.031 44.5023 129.104 45.0996 129.256L44.9953 130.545C44.5647 130.44 43.7308 130.262 42.6041 130.588C41.2487 130.98 40.9721 131.937 41.1759 132.641C41.4407 133.557 42.2244 133.826 43.9393 134.017C45.9663 134.232 47.1465 134.883 47.5999 136.449C48.002 137.84 47.4105 139.423 45.6841 140.247L46.2137 142.077L45.1041 142.398Z" fill="#FCC659"/>
<path d="M34.9023 128.166C35.8055 128.624 36.4266 129.329 36.8514 130.211C37.2762 129.329 37.8999 128.621 38.8029 128.162C37.8997 127.703 37.2759 126.999 36.8514 126.117C36.4266 126.999 35.8055 127.707 34.9023 128.166Z" fill="#FFE6A6"/>
<path d="M38.8965 131.343C39.4213 131.609 39.7823 132.018 40.029 132.531C40.2759 132.018 40.6384 131.607 41.1632 131.341C40.6384 131.074 40.2759 130.665 40.029 130.152C39.7821 130.665 39.4213 131.076 38.8965 131.343Z" fill="#FFE6A6"/>
<path d="M53.0037 132.556C52.9816 132.47 52.9571 132.385 52.9323 132.3C52.1568 129.619 50.2557 127.4 47.7168 126.21L47.8299 125.969C50.4387 127.191 52.3917 129.472 53.1885 132.226C53.2136 132.313 53.2389 132.401 53.2616 132.488L53.0037 132.556Z" fill="#152340"/>
<path d="M47.7174 126.212C45.6755 125.255 43.3507 125.042 41.1707 125.609L41.1035 125.351C43.3432 124.767 45.7323 124.988 47.8304 125.97L47.7174 126.212Z" fill="#152340"/>
<path d="M33.9639 137.507C33.2935 134.928 33.6671 132.244 35.0156 129.949L35.2455 130.084C33.9329 132.317 33.5692 134.929 34.2217 137.44L33.9639 137.507Z" fill="#152340"/>
<path d="M52.2084 140.047L51.9785 139.912C52.6324 138.799 53.0532 137.596 53.2289 136.336L53.4929 136.373C53.3121 137.668 52.8801 138.904 52.2084 140.047Z" fill="#152340"/>
<path d="M47.8438 89.1227C48.7469 89.5814 49.3683 90.2857 49.7928 91.1675C50.2176 90.2857 50.8414 89.5777 51.7443 89.119C50.8411 88.6604 50.2174 87.9561 49.7928 87.0742C49.368 87.9558 48.7467 88.6638 47.8438 89.1227Z" fill="#FFE6A6"/>
<path d="M61.0059 100.335C61.5307 100.602 61.8917 101.011 62.1384 101.523C62.3853 101.011 62.7477 100.599 63.2725 100.333C62.7477 100.066 62.3853 99.6571 62.1384 99.1445C61.8917 99.6571 61.5307 100.068 61.0059 100.335Z" fill="#FFE6A6"/>
<path d="M115.119 32.0485C116.022 32.5072 116.644 33.2115 117.068 34.0933C117.493 33.2115 118.117 32.5035 119.02 32.0448C118.116 31.5861 117.493 30.8819 117.068 30C116.644 30.8819 116.022 31.5899 115.119 32.0485Z" fill="#FFE6A6"/>
<path d="M166.959 138.994C167.862 139.453 168.483 140.157 168.908 141.039C169.333 140.157 169.957 139.449 170.86 138.99C169.956 138.531 169.333 137.827 168.908 136.945C168.483 137.827 167.862 138.535 166.959 138.994Z" fill="#FFE6A6"/>
<path d="M165.639 145.116C166.163 145.383 166.525 145.792 166.771 146.304C167.018 145.792 167.381 145.381 167.905 145.114C167.381 144.847 167.018 144.438 166.771 143.926C166.525 144.438 166.163 144.85 165.639 145.116Z" fill="#FFE6A6"/>
</g>
<defs>
<clipPath id="clip0_431_33140">
<rect width="240" height="160" fill="white"/>
</clipPath>
</defs>
</svg>
