<svg width="198" height="160" viewBox="0 0 198 160" fill="none" xmlns="http://www.w3.org/2000/svg">
<path d="M14.1449 94.3776C8.13561 80.5559 8.59375 64.133 14.1829 50.1364C20.1345 35.232 32.488 23.6104 46.3074 15.4506C70.643 1.08149 100.763 -3.59302 128.03 3.83811C135.067 5.75599 141.989 8.49574 147.782 12.9269C153.575 17.3581 158.181 23.6273 159.578 30.7859C160.546 35.7433 159.962 40.8805 160.632 45.8869C163.292 65.7562 181.944 75.0066 181.695 95.0518C181.539 107.577 172.983 116.346 161.005 124.134C150.503 130.961 42.6345 159.903 14.1449 94.3776Z" fill="#EFF4F9"/>
<path d="M99.0001 160C153.456 160 197.602 157.559 197.602 154.549C197.602 151.538 153.456 149.098 99.0001 149.098C44.5439 149.098 0.398438 151.538 0.398438 154.549C0.398438 157.559 44.5439 160 99.0001 160Z" fill="#E9ECF2"/>
<path d="M26.2188 90.1953C26.2321 90.3076 26.245 90.4172 26.2583 90.5292C27.856 104.241 30.8147 114.678 34.3991 122.623L42.0748 125.968L36.1573 125.919L35.9883 125.918C40.461 134.573 45.6627 139.826 50.3171 143.013C53.2129 145.001 55.8978 146.188 58.0623 146.894C58.2051 146.941 58.3449 146.986 58.4848 147.029C58.8326 147.137 59.1681 147.231 59.4857 147.314L63.3854 146.951C63.412 146.763 63.4364 146.578 63.4578 146.39C63.4743 146.273 63.4883 146.155 63.4996 146.038C63.521 145.883 63.5369 145.727 63.5532 145.573C65.5473 127.28 57.7258 114.066 48.7302 105.147C48.7052 105.116 48.675 105.089 48.6416 105.059C45.5128 101.965 42.241 99.3886 39.1978 97.3L38.1245 101.907L36.9853 95.84C31.7262 92.4912 27.4984 90.707 26.4631 90.2913C26.3021 90.2265 26.2188 90.1953 26.2188 90.1953Z" fill="#9AADE5"/>
<path d="M26.0898 90.2794L26.2573 90.5295L36.64 106.007L36.8263 106.28L39.6562 110.501L39.7522 110.641L48.7781 124.094L48.7907 124.113L63.4985 146.038L63.7202 146.366L64.0706 146.887L64.4109 146.855L64.0631 146.334L63.5521 145.573L49.0373 123.937L48.7674 123.536L26.462 90.2917L26.3397 90.1094L26.0898 90.2794Z" fill="white"/>
<path d="M28.9422 105.225L28.8262 105.461L39.6725 110.796L39.7885 110.561L28.9422 105.225Z" fill="white"/>
<path d="M28.3914 101.952L28.2754 102.188L36.7772 106.369L36.8932 106.133L28.3914 101.952Z" fill="white"/>
<path d="M48.7335 105.062L48.4707 105.066L48.7832 124.119L49.046 124.115L48.7335 105.062Z" fill="white"/>
<path d="M65.3841 149.747C65.3841 149.747 56.8452 155.424 42.6562 149.553L46.5939 146.925L39.727 148.214C34.1119 145.396 27.7268 140.783 20.7266 133.46L22.2295 132.459L20.1474 132.848C18.9648 131.594 17.7639 130.262 16.5469 128.846C16.5469 128.846 20.3294 127.945 25.9004 127.777L29.27 131.174L27.9552 127.754C39.4077 127.814 56.5753 131.297 65.3841 149.747Z" fill="#BAC8F3"/>
<path d="M16.6033 128.717L16.4922 128.992L65.8991 148.935L66.0102 148.66L16.6033 128.717Z" fill="white"/>
<path d="M29.3904 134.015L22.9727 135.641L23.0403 135.908L29.458 134.282L29.3904 134.015Z" fill="white"/>
<path d="M32.7543 135.319L25.3535 137.785L25.4407 138.047L32.8415 135.581L32.7543 135.319Z" fill="white"/>
<path d="M52.2135 134.587L52.4046 134.296C48.0874 131.46 43.0491 129.493 37.4288 128.449L37.3652 128.792C42.9395 129.826 47.9352 131.776 52.2135 134.587Z" fill="#2E4882"/>
<path d="M120.262 32.6539V151.488C120.262 153.147 118.92 154.493 117.257 154.493H58.8453C57.186 154.493 55.8398 153.147 55.8398 151.488V32.6539C55.8398 30.9911 57.186 29.6484 58.8453 29.6484H117.257C118.92 29.6484 120.262 30.9911 120.262 32.6539Z" fill="#17181D"/>
<path d="M124.108 32.6539V151.488C124.108 153.147 122.766 154.493 121.103 154.493H62.691C61.0317 154.493 59.6855 153.147 59.6855 151.488V32.6539C59.6855 30.9911 61.0317 29.6484 62.691 29.6484H121.103C122.766 29.6484 124.108 30.9911 124.108 32.6539Z" fill="#F9CFCF"/>
<path d="M119.684 44.9769V139.166C119.684 141.084 118.229 142.639 116.433 142.639H67.3601C65.5649 142.639 64.1094 141.084 64.1094 139.166V44.9769C64.1094 43.0587 65.5649 41.5039 67.3601 41.5039H116.433C118.228 41.5039 119.684 43.0587 119.684 44.9769Z" fill="white"/>
<path d="M100.015 35.3764H83.7819C83.622 35.3764 83.4922 35.2466 83.4922 35.0866C83.4922 34.9267 83.622 34.7969 83.7819 34.7969H100.015C100.175 34.7969 100.304 34.9267 100.304 35.0866C100.304 35.2466 100.175 35.3764 100.015 35.3764Z" fill="#2E4882"/>
<path d="M117.062 143.332H66.7346C64.5127 143.332 62.7051 141.462 62.7051 139.163V44.9734C62.7051 42.6746 64.5127 40.8047 66.7346 40.8047H117.062C119.284 40.8047 121.092 42.6749 121.092 44.9734V139.163C121.092 141.462 119.284 143.332 117.062 143.332ZM66.7346 42.196C65.28 42.196 64.0964 43.4419 64.0964 44.9734V139.163C64.0964 140.694 65.28 141.94 66.7346 141.94H117.062C118.517 141.94 119.701 140.694 119.701 139.163V44.9734C119.701 43.4419 118.517 42.196 117.062 42.196H66.7346Z" fill="white"/>
<path d="M124.371 32.654V134.463H123.849V32.654C123.849 31.1421 122.616 29.9091 121.104 29.9091H62.6912C61.1792 29.9091 59.9462 31.1421 59.9462 32.654V114.298H59.4238V32.654C59.4238 30.8533 60.8904 29.3867 62.6912 29.3867H121.104C122.905 29.3867 124.371 30.8533 124.371 32.654Z" fill="#2E4882"/>
<path d="M69.4094 154.755H62.6921C60.891 154.755 59.4258 153.29 59.4258 151.489V137.746H59.9475V151.489C59.9475 153.002 61.1785 154.234 62.6918 154.234H69.4091V154.755H69.4094Z" fill="#2E4882"/>
<path d="M102.548 154.23H76.8633V154.752H102.548V154.23Z" fill="#2E4882"/>
<path d="M145.72 152.695C145.72 153.593 139.128 154.323 130.998 154.323C122.869 154.323 116.277 153.592 116.277 152.695C116.277 152.678 116.281 152.664 116.284 152.646V148.246H145.709V152.636C145.716 152.657 145.72 152.674 145.72 152.695Z" fill="#F49B51"/>
<path d="M130.998 149.912C139.128 149.912 145.718 149.183 145.718 148.284C145.718 147.385 139.128 146.656 130.998 146.656C122.868 146.656 116.277 147.385 116.277 148.284C116.277 149.183 122.868 149.912 130.998 149.912Z" fill="#FCC659"/>
<path d="M149.198 147.383C149.198 148.28 142.606 149.011 134.477 149.011C126.348 149.011 119.756 148.28 119.756 147.383C119.756 147.365 119.759 147.351 119.763 147.334V142.934H149.188V147.324C149.195 147.344 149.198 147.362 149.198 147.383Z" fill="#F49B51"/>
<path d="M134.476 144.603C142.606 144.603 149.197 143.874 149.197 142.975C149.197 142.076 142.606 141.348 134.476 141.348C126.346 141.348 119.756 142.076 119.756 142.975C119.756 143.874 126.346 144.603 134.476 144.603Z" fill="#FCC659"/>
<path d="M145.72 142.074C145.72 142.971 139.128 143.702 130.998 143.702C122.869 143.702 116.277 142.971 116.277 142.074C116.277 142.056 116.281 142.043 116.284 142.025V137.625H145.709V142.015C145.716 142.036 145.72 142.053 145.72 142.074Z" fill="#F49B51"/>
<path d="M130.998 139.295C139.128 139.295 145.718 138.566 145.718 137.667C145.718 136.768 139.128 136.039 130.998 136.039C122.868 136.039 116.277 136.768 116.277 137.667C116.277 138.566 122.868 139.295 130.998 139.295Z" fill="#FCC659"/>
<path d="M131.001 154.493C125.013 154.493 116.105 154.014 116.105 152.691H116.453C116.453 153.199 121.45 154.146 131 154.146C131.348 154.146 131.692 154.144 132.033 154.141L132.036 154.489C131.695 154.492 131.349 154.493 131.001 154.493Z" fill="#2E4882"/>
<path d="M136.837 154.36L136.82 154.013C138.311 153.941 139.678 153.844 140.883 153.723L140.918 154.069C139.706 154.19 138.334 154.289 136.837 154.36Z" fill="#2E4882"/>
<path d="M125.19 148.794C119.658 148.29 119.658 147.593 119.658 147.363H120.006C120.006 147.533 120.943 148.058 125.221 148.447L125.19 148.794Z" fill="#2E4882"/>
<path d="M134.552 149.16C132.897 149.16 131.272 149.13 129.721 149.07L129.734 148.723C132.504 148.829 135.565 148.841 138.419 148.755L138.429 149.103C137.165 149.141 135.861 149.16 134.552 149.16Z" fill="#2E4882"/>
<path d="M142.084 148.935L142.061 148.588C143.63 148.485 145 148.351 146.13 148.191L146.179 148.536C145.039 148.697 143.662 148.831 142.084 148.935Z" fill="#2E4882"/>
<path d="M121.1 139.054C116.193 138.553 116.193 137.921 116.193 137.684H116.541C116.541 137.689 116.666 138.252 121.135 138.708L121.1 139.054Z" fill="#2E4882"/>
<path d="M131.089 139.486C129.397 139.486 127.741 139.455 126.17 139.393L126.184 139.045C127.751 139.107 129.401 139.138 131.089 139.138C134.11 139.138 137.011 139.038 139.48 138.848L139.506 139.194C137.03 139.385 134.119 139.486 131.089 139.486Z" fill="#2E4882"/>
<path d="M150.938 136.765C150.938 137.663 144.347 138.393 136.217 138.393C128.088 138.393 121.496 137.663 121.496 136.765C121.496 136.748 121.5 136.734 121.503 136.717V132.316H150.928V136.706C150.935 136.727 150.938 136.745 150.938 136.765Z" fill="#F49B51"/>
<path d="M136.217 133.982C144.346 133.982 150.937 133.253 150.937 132.354C150.937 131.455 144.346 130.727 136.217 130.727C128.087 130.727 121.496 131.455 121.496 132.354C121.496 133.253 128.087 133.982 136.217 133.982Z" fill="#FCC659"/>
<path d="M148.205 132.356C148.205 132.961 142.837 133.451 136.215 133.451C129.593 133.451 124.225 132.961 124.225 132.356C124.225 131.752 129.593 131.262 136.215 131.262C142.837 131.262 148.205 131.752 148.205 132.356Z" fill="#F49B51"/>
<g opacity="0.38">
<path d="M124.04 79.0664V121.331H87.2281C85.7937 121.331 84.6211 120.341 84.6211 119.128V81.2662C84.6211 80.056 85.794 79.0664 87.2281 79.0664H124.04Z" fill="#A3B2CE"/>
</g>
<path d="M97.0386 4.52946C88.8304 4.76047 82.3645 11.6034 82.5959 19.8145C82.8269 28.0227 89.6698 34.4915 97.8809 34.2572C106.089 34.0262 112.558 27.183 112.324 18.9722C112.093 10.764 105.25 4.29812 97.0386 4.52946ZM109.425 19.0549C109.514 22.2499 108.355 25.2894 106.157 27.6132C103.963 29.937 100.996 31.2679 97.7978 31.3581C91.2025 31.5434 85.6831 26.3297 85.4975 19.7314C85.4076 16.5368 86.5643 13.4972 88.7619 11.1734C90.88 8.93206 93.7197 7.61411 96.7884 7.44376C96.9004 7.4376 97.0094 7.43468 97.1213 7.43143C103.611 7.24584 109.052 12.2893 109.409 18.7282C109.416 18.8372 109.422 18.9459 109.425 19.0549Z" fill="#FCC659"/>
<path d="M109.411 18.7275C109.418 18.8362 109.423 18.9452 109.426 19.0542C109.517 22.2492 108.357 25.2888 106.159 27.6129C103.964 29.9367 100.998 31.2679 97.7996 31.3581C91.2043 31.5434 85.6846 26.3293 85.499 19.7311C85.4091 16.5361 86.5658 13.4966 88.7634 11.1728C90.8815 8.93139 93.7212 7.61343 96.7899 7.44309C96.9019 7.43693 97.0109 7.434 97.1231 7.43076C103.612 7.24484 109.054 12.2883 109.411 18.7275Z" fill="#F49B51"/>
<path d="M97.2113 28.5738L97.0864 26.3253C95.794 26.3749 94.4359 26.0482 93.626 25.5349L94.0776 24.0138C94.9089 24.5034 96.09 24.8623 97.3365 24.7932C98.9173 24.7056 99.9351 23.7332 99.8647 22.4645C99.7966 21.24 98.8865 20.5311 97.2019 19.9548C94.8813 19.1901 93.4219 18.2439 93.3145 16.3069C93.212 14.4591 94.4475 12.9835 96.4774 12.536L96.3524 10.2875L97.7327 10.2109L97.8527 12.3705C99.1911 12.3407 100.124 12.6463 100.79 12.989L100.315 14.4893C99.8329 14.2482 98.893 13.8092 97.4679 13.8881C95.7538 13.9831 95.1649 15.0431 95.2142 15.9338C95.2785 17.0915 96.1344 17.6245 98.1159 18.3186C100.461 19.1265 101.683 20.2199 101.793 22.2011C101.891 23.96 100.758 25.6754 98.4855 26.1812L98.6139 28.4966L97.2113 28.5738Z" fill="#FCC659"/>
<path d="M108.755 15.7657C108.724 15.67 108.691 15.5746 108.658 15.4798C107.528 12.2557 105.069 9.68756 101.904 8.41438L102.025 8.11328C105.277 9.42183 107.804 12.0603 108.957 15.3536C108.998 15.4711 109.032 15.5687 109.064 15.6677L108.755 15.7657Z" fill="#2E4882"/>
<path d="M101.903 8.41356C99.3585 7.38924 96.5198 7.28671 93.9095 8.12252L93.8105 7.81396C96.4929 6.95381 99.4098 7.06089 102.024 8.11279L101.903 8.41356Z" fill="#2E4882"/>
<path d="M108.292 24.9206L108.004 24.7723C108.723 23.3768 109.153 21.8866 109.282 20.3438L109.605 20.371C109.473 21.956 109.031 23.4868 108.292 24.9206Z" fill="#2E4882"/>
<path d="M106.512 7.81364C105.309 6.87205 103.975 6.12709 102.547 5.59984L102.668 5.27344C104.129 5.81366 105.495 6.57615 106.726 7.5398L106.512 7.81364Z" fill="#2E4882"/>
<path d="M106.534 31.3954L106.324 31.118C110.108 28.2536 112.286 23.7151 112.152 18.9776C112.068 16.0335 111.121 13.2181 109.41 10.8356L109.693 10.6328C111.444 13.0721 112.414 15.9543 112.5 18.9679C112.637 23.8173 110.407 28.4629 106.534 31.3954Z" fill="#2E4882"/>
<path d="M58.141 54.3262C51.3877 55.8986 47.1888 62.6487 48.7618 69.4046C50.3341 76.1579 57.0849 80.3594 63.8401 78.7838C70.5935 77.2114 74.7946 70.4607 73.2193 63.7054C71.6467 56.9521 64.8966 52.7533 58.141 54.3262ZM70.8342 64.2616C71.4465 66.89 70.9981 69.6006 69.5704 71.8932C68.1454 74.1852 65.9144 75.7858 63.2834 76.3987C57.8571 77.6618 52.4126 74.276 51.1489 68.8475C50.5369 66.219 50.9824 63.5091 52.41 61.2165C53.7854 59.0053 55.9136 57.4372 58.4242 56.7798C58.5157 56.7558 58.6056 56.735 58.6978 56.7136C64.0361 55.468 69.3874 58.7259 70.7667 63.9939C70.7901 64.0828 70.8134 64.172 70.8342 64.2616Z" fill="#FCC659"/>
<path d="M70.7685 63.9952C70.7918 64.0841 70.8152 64.1733 70.8359 64.2629C71.4479 66.8913 70.9998 69.6019 69.5722 71.8948C68.1471 74.1868 65.9161 75.7877 63.2851 76.4003C57.8588 77.6634 52.414 74.2777 51.1503 68.8488C50.5383 66.2203 50.9838 63.5104 52.4114 61.2175C53.7868 59.0063 55.915 57.4382 58.4256 56.7808C58.5171 56.7568 58.607 56.736 58.6992 56.7146C64.0378 55.469 69.3892 58.7269 70.7685 63.9952Z" fill="#F49B51"/>
<path d="M62.33 74.1932L61.8485 72.3535C60.7875 72.6121 59.6087 72.5703 58.8521 72.2818L58.9699 70.947C59.7401 71.2124 60.7778 71.3104 61.7975 71.0434C63.0908 70.7046 63.7696 69.729 63.4977 68.691C63.2356 67.6891 62.3631 67.2559 60.8722 67.0622C58.8235 66.8199 57.4566 66.2826 57.0416 64.6979C56.6458 63.1862 57.4199 61.7573 59.0244 61.0454L58.5429 59.2057L59.672 58.9102L60.1347 60.6768C61.2372 60.427 62.0604 60.523 62.6697 60.6944L62.5289 62.0156C62.0892 61.8971 61.2375 61.6921 60.0717 61.9971C58.6691 62.3644 58.3602 63.3403 58.551 64.0691C58.7989 65.0162 59.5971 65.3134 61.3534 65.5541C63.4296 65.828 64.6249 66.5272 65.0493 68.1482C65.426 69.5872 64.7771 71.1975 62.9822 71.9983L63.4783 73.8925L62.33 74.1932Z" fill="#FCC659"/>
<path d="M69.7258 61.6533C69.6846 61.5793 69.6411 61.5059 69.5976 61.4329C68.1204 58.9554 65.6532 57.2438 62.8203 56.7227L62.8696 56.4531C65.7804 56.9888 68.3154 58.7471 69.8241 61.2779C69.8777 61.3681 69.9224 61.4433 69.9653 61.5196L69.7258 61.6533Z" fill="#2E4882"/>
<path d="M62.8193 56.7229C60.5412 56.3034 58.1749 56.6963 56.1555 57.8271L56.0215 57.5883C58.0964 56.4254 60.5279 56.0227 62.8686 56.4533L62.8193 56.7229Z" fill="#2E4882"/>
<path d="M70.8826 69.306L70.6191 69.2317C70.9796 67.9559 71.0847 66.6506 70.9313 65.3521L71.2035 65.3203C71.3612 66.6542 71.2531 67.9952 70.8826 69.306Z" fill="#2E4882"/>
<path d="M66.5304 55.4513C65.3763 54.8744 64.1472 54.4828 62.877 54.2865L62.9217 53.9961C64.2222 54.1973 65.4801 54.5983 66.6615 55.1888L66.5304 55.4513Z" fill="#2E4882"/>
<path d="M70.517 74.9623L70.2963 74.768C72.9452 71.7612 73.9842 67.6389 73.076 63.7415C72.5114 61.3194 71.2535 59.1491 69.4375 57.4654L69.6374 57.25C71.4962 58.9739 72.7846 61.1954 73.3622 63.675C74.2918 67.6645 73.2282 71.8841 70.517 74.9623Z" fill="#2E4882"/>
<path d="M90.067 118.089H148.896C150.107 118.089 151.098 117.098 151.098 115.887V78.026C151.098 76.8148 150.107 75.8242 148.896 75.8242H90.067C88.8561 75.8242 87.8652 76.8151 87.8652 78.026V115.887C87.8652 117.098 88.8561 118.089 90.067 118.089Z" fill="#DD5454"/>
<path d="M103.779 104.88H93.1882C92.8601 104.88 92.5918 104.612 92.5918 104.284V102.249C92.5918 101.921 92.8601 101.652 93.1882 101.652H103.779C104.107 101.652 104.375 101.921 104.375 102.249V104.284C104.375 104.612 104.107 104.88 103.779 104.88Z" fill="white"/>
<path d="M117.779 104.88H107.188C106.86 104.88 106.592 104.612 106.592 104.284V102.249C106.592 101.921 106.86 101.652 107.188 101.652H117.779C118.107 101.652 118.375 101.921 118.375 102.249V104.284C118.375 104.612 118.107 104.88 117.779 104.88Z" fill="white"/>
<path d="M131.777 104.88H121.186C120.858 104.88 120.59 104.612 120.59 104.284V102.249C120.59 101.921 120.858 101.652 121.186 101.652H131.777C132.105 101.652 132.373 101.921 132.373 102.249V104.284C132.373 104.612 132.105 104.88 131.777 104.88Z" fill="white"/>
<path d="M145.775 104.88H135.184C134.856 104.88 134.588 104.612 134.588 104.284V102.249C134.588 101.921 134.856 101.652 135.184 101.652H145.775C146.103 101.652 146.371 101.921 146.371 102.249V104.284C146.371 104.612 146.103 104.88 145.775 104.88Z" fill="white"/>
<path d="M145.645 111.197H131.712C131.313 111.197 130.986 110.87 130.986 110.471V108.695C130.986 108.295 131.313 107.969 131.712 107.969H145.645C146.044 107.969 146.371 108.295 146.371 108.695V110.471C146.371 110.871 146.044 111.197 145.645 111.197Z" fill="white"/>
<path d="M95.2793 88.2948V84.0554C95.2793 83.1287 96.0333 82.375 96.9597 82.375H105.195C106.122 82.375 106.876 83.1287 106.876 84.0554V88.2948C106.876 89.2214 106.122 89.9752 105.195 89.9752H96.9597C96.0333 89.9752 95.2793 89.2211 95.2793 88.2948ZM96.9597 82.8257C96.2819 82.8257 95.7303 83.3773 95.7303 84.0551V88.2945C95.7303 88.9723 96.2819 89.5239 96.9597 89.5239H105.195C105.873 89.5239 106.425 88.9723 106.425 88.2945V84.0551C106.425 83.3773 105.873 82.8257 105.195 82.8257H96.9597Z" fill="white"/>
<path d="M144.416 85.5857C144.416 85.5334 144.436 85.4812 144.476 85.4413C146.328 83.5889 146.328 80.5757 144.476 78.7236C144.396 78.6438 144.396 78.5147 144.476 78.4349C144.556 78.355 144.685 78.355 144.765 78.4349C146.776 80.4462 146.776 83.719 144.765 85.73C144.685 85.8098 144.556 85.8098 144.476 85.73C144.436 85.6901 144.416 85.6379 144.416 85.5857Z" fill="white"/>
<path d="M143.395 79.7472C143.395 79.695 143.414 79.6427 143.454 79.6028C143.534 79.523 143.663 79.523 143.743 79.6028C145.11 80.9701 145.11 83.1949 143.743 84.5622C143.663 84.642 143.534 84.642 143.454 84.5622C143.375 84.4824 143.375 84.3533 143.454 84.2734C144.662 83.0651 144.662 81.0996 143.454 79.8919C143.414 79.8517 143.395 79.7994 143.395 79.7472Z" fill="white"/>
<path d="M142.414 83.3321C142.414 83.2799 142.434 83.2277 142.474 83.1878C143.084 82.5774 143.084 81.5843 142.474 80.9736C142.394 80.8938 142.394 80.7647 142.474 80.6849C142.554 80.605 142.683 80.605 142.763 80.6849C143.532 81.4545 143.532 82.7069 142.763 83.4765C142.683 83.5563 142.554 83.5563 142.474 83.4765C142.434 83.4366 142.414 83.3844 142.414 83.3321Z" fill="white"/>
<path d="M151.318 86.1665H150.878V77.789C150.878 76.6962 149.989 75.8072 148.897 75.8072H130.895V75.3672H148.897C150.232 75.3672 151.318 76.4535 151.318 77.789L151.318 86.1665Z" fill="#2E4882"/>
<path d="M151.317 90.5664H150.877V95.4112H151.317V90.5664Z" fill="#2E4882"/>
<path d="M110.48 75.3672H98.9473V75.8072H110.48V75.3672Z" fill="#2E4882"/>
<path d="M152.494 31.8046C143.809 29.4529 134.862 34.5891 132.51 43.2775C130.158 51.9627 135.293 60.9126 143.983 63.2617C152.668 65.6134 161.618 60.4782 163.967 51.7888C166.319 43.1036 161.182 34.1572 152.494 31.8046ZM160.899 50.9598C159.983 54.3403 157.806 57.1631 154.766 58.9068C151.729 60.6511 148.195 61.1102 144.811 60.1943C137.833 58.3043 133.689 51.0896 135.58 44.1078C136.496 40.7273 138.67 37.9038 141.71 36.1601C144.641 34.4778 148.037 33.9927 151.31 34.7838C151.43 34.8127 151.545 34.8441 151.664 34.8763C158.531 36.7325 162.646 43.7438 160.986 50.6129C160.958 50.7284 160.93 50.8446 160.899 50.9598Z" fill="#FCC659"/>
<path d="M160.987 50.6138C160.959 50.73 160.931 50.8461 160.9 50.9613C159.984 54.3419 157.807 57.1647 154.766 58.9083C151.729 60.653 148.196 61.1117 144.812 60.1958C137.833 58.3058 133.69 51.0908 135.581 44.1087C136.496 40.7281 138.67 37.9044 141.711 36.1607C144.641 34.4784 148.037 33.993 151.311 34.7843C151.43 34.8132 151.546 34.8447 151.664 34.8768C158.532 36.7331 162.647 43.7447 160.987 50.6138Z" fill="#F49B51"/>
<path d="M145.075 57.0871L145.655 54.6884C144.283 54.3321 142.961 53.5599 142.273 52.7653L143.228 51.3121C143.945 52.0885 145.071 52.8383 146.401 53.1595C148.087 53.5671 149.463 52.8688 149.79 51.5152C150.106 50.2089 149.375 49.1774 147.789 48.0405C145.596 46.5049 144.364 45.0509 144.864 42.9845C145.34 41.0134 147.103 39.8557 149.374 40.0276L149.954 37.6289L151.426 37.9848L150.869 40.2885C152.283 40.6801 153.165 41.2956 153.756 41.8657L152.783 43.2894C152.353 42.8842 151.506 42.1263 149.986 41.759C148.158 41.3171 147.205 42.2431 146.975 43.1931C146.677 44.4283 147.406 45.258 149.266 46.6123C151.471 48.2008 152.408 49.7345 151.897 51.8481C151.443 53.7244 149.712 55.1663 147.169 54.9788L146.572 57.4486L145.075 57.0871Z" fill="#FCC659"/>
<path d="M161.235 47.2966C161.233 47.1866 161.229 47.0759 161.224 46.9659C161.058 43.2262 159.289 39.7545 156.371 37.4184L156.593 37.1406C159.591 39.541 161.409 43.1084 161.579 46.9283C161.585 47.0643 161.589 47.1778 161.591 47.2914L161.235 47.2966Z" fill="#2E4882"/>
<path d="M156.37 37.4158C154.024 35.5369 151.078 34.532 148.075 34.5839L148.068 34.2286C151.155 34.1738 154.181 35.2079 156.592 37.1381L156.37 37.4158Z" fill="#2E4882"/>
<path d="M157.855 56.7552L157.6 56.5086C158.796 55.2718 159.718 53.8441 160.34 52.2656L160.671 52.3964C160.031 54.018 159.083 55.4846 157.855 56.7552Z" fill="#2E4882"/>
<path d="M161.394 38.2474C160.429 36.8792 159.265 35.6761 157.934 34.6715L158.163 34.3672C159.526 35.3957 160.718 36.6274 161.705 38.0281L161.394 38.2474Z" fill="#2E4882"/>
<path d="M153.965 62.9936L153.832 62.6361C158.707 60.8265 162.427 56.7533 163.784 51.74C164.627 48.6245 164.522 45.3712 163.481 42.3306L163.841 42.207C164.907 45.3196 165.015 48.6505 164.152 51.8393C162.763 56.9713 158.955 61.1409 153.965 62.9936Z" fill="#2E4882"/>
<path d="M111.08 81.5101L122.522 89.2589L131.681 79.4485L127.381 79.8787C127.328 79.5834 127.265 79.2898 127.206 78.9968L127.115 78.5578C127.101 78.4848 127.085 78.4118 127.065 78.3395L126.739 77.0685C125.727 73.4914 124.015 70.1835 121.779 67.3639C119.546 64.5418 116.788 62.2043 113.73 60.5055C110.673 58.8014 107.321 57.7476 103.966 57.3673C100.609 56.9776 97.2154 57.2719 94.0656 58.1843C90.9128 59.0947 88.0017 60.6187 85.5313 62.6041C83.0579 64.5865 81.0219 67.0245 79.5528 69.7127C78.0794 72.3996 77.1813 75.332 76.8691 78.269C77.7283 75.4404 79.1284 72.8372 80.9411 70.6452C82.7513 68.4499 84.9661 66.6644 87.3872 65.387C89.807 64.1057 92.4338 63.339 95.0474 63.1047C97.6629 62.8695 100.261 63.1615 102.669 63.9305C105.078 64.6943 107.266 65.911 109.098 67.4684C110.932 69.0235 112.412 70.9151 113.455 72.9683C114.502 75.0212 114.999 77.2512 115.305 79.4147C115.372 79.891 115.46 81.1129 115.46 81.1129L111.08 81.5101Z" fill="#17181D"/>
<path d="M138.383 37.5073C139.59 38.1202 140.42 39.0615 140.988 40.2399C141.555 39.0615 142.389 38.1154 143.596 37.5021C142.389 36.8889 141.555 35.948 140.988 34.7695C140.42 35.948 139.59 36.8941 138.383 37.5073Z" fill="#FFE6A6"/>
<path d="M150.051 59.919C150.752 60.2752 151.234 60.8219 151.564 61.5069C151.894 60.8219 152.378 60.2723 153.08 59.916C152.378 59.5598 151.894 59.0131 151.564 58.3281C151.234 59.0131 150.752 59.5627 150.051 59.919Z" fill="#FFE6A6"/>
<path d="M102.17 28.3296C103.03 28.7663 103.622 29.4369 104.026 30.2767C104.43 29.4369 105.024 28.7627 105.884 28.326C105.024 27.8893 104.43 27.2186 104.026 26.3789C103.622 27.2186 103.03 27.8925 102.17 28.3296Z" fill="#FFE6A6"/>
<path d="M50.7812 62.225C51.4746 62.577 51.9516 63.1176 52.2777 63.7947C52.6037 63.1179 53.0827 62.5741 53.7757 62.2221C53.0823 61.8697 52.6034 61.3295 52.2777 60.6523C51.9516 61.3295 51.4746 61.873 50.7812 62.225Z" fill="#FFE6A6"/>
<path d="M99.0781 31.5712C99.5778 31.8249 99.9217 32.2146 100.157 32.7026C100.392 32.2146 100.737 31.8229 101.236 31.5689C100.737 31.3152 100.392 30.9255 100.157 30.4375C99.9217 30.9255 99.5778 31.3174 99.0781 31.5712Z" fill="#FFE6A6"/>
<path d="M7.79615 81.1891L7.47072 81.3124C5.04407 74.9166 5.42856 68.003 8.68225 59.5547L9.00671 59.6796C5.78579 68.0436 5.4013 74.8783 7.79615 81.1891Z" fill="#2E4882"/>
<path d="M6.79947 86.1379L6.50388 86.3209C-0.480459 75.0261 3.59541 63.3974 8.50386 53.5117L8.81534 53.6662C3.9494 63.4665 -0.0953259 74.9881 6.79947 86.1379Z" fill="#2E4882"/>
<path d="M155.067 15.5974C149.465 8.6014 143.755 4.82565 137.098 3.71405L137.155 3.37109C143.902 4.49697 149.68 8.31263 155.339 15.38L155.067 15.5974Z" fill="#2E4882"/>
<path d="M160.358 18.4586C154.345 9.31786 146.431 0.018486 133.325 0.356899L133.316 0.00907714C146.592 -0.332905 154.583 9.04661 160.649 18.2675L160.358 18.4586Z" fill="#2E4882"/>
<path d="M113.238 73.0765C112.196 71.0288 110.71 69.1528 108.94 67.6518C107.123 66.1074 104.929 64.9001 102.594 64.16C100.209 63.3981 97.606 63.1162 95.0684 63.3449C93.8111 63.4578 92.5502 63.6957 91.3212 64.0526L91.1855 63.5854C92.4448 63.2197 93.7365 62.976 95.0249 62.8605C97.6274 62.6256 100.296 62.9153 102.742 63.6966C105.138 64.4559 107.39 65.6956 109.255 67.2813C111.074 68.8234 112.601 70.7514 113.671 72.8565L113.238 73.0765Z" fill="#2E4882"/>
<path d="M81.1273 70.8L80.752 70.4904C82.5456 68.3152 84.8002 66.4759 87.2723 65.1719L87.4994 65.6021C85.0838 66.8766 82.8804 68.6741 81.1273 70.8Z" fill="#2E4882"/>
<path d="M126.504 77.1345C125.521 73.6576 123.821 70.3309 121.588 67.5149C119.404 64.7541 116.645 62.4037 113.611 60.7178C110.646 59.065 107.302 57.9897 103.938 57.6084L103.992 57.125C107.42 57.5134 110.827 58.6088 113.848 60.2924C116.937 62.0088 119.746 64.402 121.97 67.2128C124.242 70.0785 125.972 73.4639 126.973 77.0021L126.504 77.1345Z" fill="#2E4882"/>
<path d="M122.557 89.5746L113.85 83.6779L114.122 83.2749L122.485 88.9384L129.309 81.6289L129.664 81.9611L122.557 89.5746Z" fill="#2E4882"/>
</svg>
